<svg width="16" height="14" viewBox="0 0 16 14"  xmlns="http://www.w3.org/2000/svg">
    <path d="M8.3136 1H7.6736H1.5C0.671573 1 0 1.67157 0 2.5V5.33333V8.66667V11.576C0 12.3625 0.637546 13 1.424 13H7.6736H8.3136H14.576C15.3625 13 16 12.3625 16 11.576V8.66667V5.33333V2.462C16 1.65456 15.3454 1 14.538 1H8.3136ZM7.57977 8.154C7.09465 8.006 6.82496 7.53867 6.82496 7C6.82496 6.46133 7.09465 6.01 7.57977 5.862V8.154ZM8.40743 5.854C8.89895 5.99733 9.17504 6.45667 9.17504 7C9.17504 7.54333 8.89895 8.01 8.40743 8.154V5.854ZM0.804491 8.66667H3.264V8.65133C4.09472 8.574 4.74752 7.86867 4.74752 7C4.74752 6.13133 4.09472 5.426 3.264 5.34867V5.33333H0.804491V2.462C3.38625 2.74 5.22816 4.66667 5.22816 7C5.22816 9.33333 3.38625 11.26 0.804491 11.538V8.66667ZM0.804491 8V6H1.8176H2.6112V6.14733V7.85267V8H1.8176H0.804491ZM3.264 7.98467V6.01533C3.73312 6.08867 4.09472 6.50067 4.09472 7C4.09472 7.49933 3.73312 7.91133 3.264 7.98467ZM1.09899 12.1669C0.936515 12.1674 0.804491 12.0359 0.804491 11.8734C3.57057 11.5927 5.5552 9.51933 5.5552 7C5.5552 4.48067 3.57057 2.40667 0.804491 2.126C0.804491 1.98172 0.921456 1.86475 1.06574 1.86475H7.57977V5.402C6.87001 5.56533 6.39744 6.24067 6.39744 7C6.39744 7.75933 6.87001 8.40987 7.57977 8.5732V12.1437L1.09899 12.1669ZM15.1891 5.33333H12.736V5.34867C11.9053 5.426 11.2525 6.13133 11.2525 7C11.2525 7.86867 11.9053 8.574 12.736 8.65133V8.66667H15.1891V11.538C12.6073 11.26 10.7718 9.33333 10.7718 7C10.7718 4.66667 12.6073 2.74 15.1891 2.462V5.33333ZM15.1891 6V8H14.1824H13.3888V7.85267V6.14733V6H14.1824H15.1891ZM12.736 6.01533V7.98467C12.2669 7.91133 11.9053 7.49933 11.9053 7C11.9053 6.50067 12.2669 6.08867 12.736 6.01533ZM10.4448 7C10.4448 9.51933 12.423 11.5927 15.1891 11.8734C15.1891 12.0354 15.0575 12.1666 14.8955 12.166L8.40743 12.1437V8.5781C9.12359 8.4201 9.60256 7.764 9.60256 7C9.60256 6.236 9.12359 5.556 8.40743 5.398V1.86475H14.9279C15.0721 1.86475 15.1891 1.98172 15.1891 2.126C12.423 2.40667 10.4448 4.48067 10.4448 7Z" />
</svg>
