<svg version="1.1" id="Layer_1" xmlns="http://www.w3.org/2000/svg"  x="0px" y="0px"
	 viewBox="0 0 16 14" style="enable-background:new 0 0 16 14;" xml:space="preserve">
<path d="M2.3,13c-1.2,0-2.2-1-2.2-2.2V3.2C0.2,2,1.1,1,2.3,1h11.3c1.2,0,2.2,1,2.2,2.2v7.6c0,1.2-1,2.2-2.2,2.2H2.3z M13.7,11.6
	c0.5,0,0.9-0.4,0.9-0.8v-0.2h-1c-0.7,0-1.3-0.6-1.3-1.5V4.9c0-0.8,0.6-1.5,1.3-1.5h1V3.3c0-0.5-0.4-0.9-0.9-0.9h-5v1.1
	c1.5,0.3,2.6,1.7,2.6,3.5c0,1.8-1.1,3.2-2.6,3.5v1.1H13.7z M1.5,10.7c0,0.5,0.4,0.8,0.9,0.8h5v-1.1C5.8,10.2,4.7,8.8,4.7,7
	c0-1.8,1.1-3.2,2.6-3.5V2.4h-5c-0.5,0-0.9,0.4-0.9,0.9v0.2h1c0.7,0,1.3,0.7,1.3,1.5v4.1c0,0.8-0.6,1.5-1.3,1.5h-1V10.7z M14.5,9.1
	V4.9h-0.9v4.3H14.5z M2.4,9.1V4.9l-0.9,0v4.3H2.4z M7.3,4.9C6.3,5.2,6,6.2,6,7c0,0.7,0.2,1.8,1.3,2.1V4.9z M8.7,9.1
	C9.8,8.8,10,7.7,10,7c0-0.7-0.2-1.8-1.3-2.1L8.7,9.1z"/>
</svg>
