<svg class="MenuSportstyled__MenuSportSvg__styled-sc-r6oclf-4 kIMEQC">
    <symbol viewBox="0 0 32 32" id="65">
        <path d="M11.88 21.998h.187c1.58-.35 3.139-.796 4.666-1.333 1.127-.373 2.187-.727 3.094-.953a33.996 33.996 0 0 1 8.293-1.047h2.547v-1.333H26.1a22.044 22.044 0 0 0-6.52.98 23.656 23.656 0 0 1-6.913 1.02c-1.45 0-2.896-.134-4.32-.4l-4.667-.88-1.84-.447a1.386 1.386 0 0 0-.507 1.06c0 2.72 4.367 3.333 5.9 3.333H11.9h-.02Z"></path>
        <path d="m3.933 16.765 4.667.873c3.53.66 7.167.454 10.6-.6 2.235-.69 4.56-1.04 6.9-1.04h4.567v-3.333a.667.667 0 0 0-.57-.659.666.666 0 0 0-.31.026c-5.414 1.806-7.8-1.594-7.9-1.733a.667.667 0 0 0-.894-.207l-.446.266c-.58.354-1.174.667-1.78 1.014l1.16 2.326a.667.667 0 0 1-.942.868.667.667 0 0 1-.245-.268l-1.16-2.3c-.227.114-.447.234-.667.34l1.02 2.04a.667.667 0 0 1-.293.894.62.62 0 0 1-.307.06.666.666 0 0 1-.593-.367l-1.04-2.08-.667.313.914 1.834a.667.667 0 0 1-.614.966.667.667 0 0 1-.593-.366l-.967-1.927a57.064 57.064 0 0 1-9.493 2.9l-.513.12.166.04ZM20.16 20.978c-.853.213-1.893.56-2.993.927l-.274.093h11.774a2 2 0 0 0 2-2H28.12c-2.684 0-5.357.328-7.96.98Z"></path>
    </symbol>
</svg>