<svg width="16" height="14" viewBox="0 0 16 14"  xmlns="http://www.w3.org/2000/svg">
    <path d="M16 2.66667C16 1.74619 15.2538 1 14.3333 1H8.32H7.68H1.66667C0.746194 1 0 1.74619 0 2.66667V11.3333C0 12.2538 0.746192 13 1.66667 13H7.68H8.32H14.3333C15.2538 13 16 12.2538 16 11.3333V2.66667ZM15.2027 5.83333H14.72V8.16667H15.2027V10.588C14.3355 10.4073 13.7984 9.608 13.7984 8.652V5.348C13.7984 4.392 14.3355 3.59333 15.2027 3.412V5.83333ZM13.12 5.348V8.652C13.12 10.0133 13.9407 11.109 15.2027 11.281C15.2027 11.7482 14.7964 12.1247 14.3544 11.973C13.03 11.5185 12.16 10.2877 12.16 8.704V5.296C12.16 3.70935 13.0332 2.48915 14.3618 2.04076C14.8004 1.89272 15.2027 2.26561 15.2027 2.72855C13.9407 2.90055 13.12 3.986 13.12 5.348ZM0.796227 11.2811C2.05831 11.1091 2.88 10.0133 2.88 8.652V5.348C2.88 3.98667 2.05831 2.89091 0.796227 2.71891C0.796227 2.25064 1.20345 1.8734 1.64625 2.02573C2.97 2.48111 3.84 3.71293 3.84 5.296V8.704C3.84 10.2926 2.9639 11.5171 1.63233 11.9652C1.19614 12.1119 0.796227 11.7413 0.796227 11.2811ZM0.796227 8.16667H1.28V5.83333H0.796227V3.412C1.66343 3.59267 2.2016 4.392 2.2016 5.348V8.652C2.2016 9.608 1.66343 10.4067 0.796227 10.588V8.16667ZM2.55552 12.1494C3.71072 11.388 4.48 10.2333 4.48 8.704V5.296C4.48 3.76667 3.71072 2.61001 2.55552 1.84868H7.57453V12.1494H2.55552ZM8.39812 12.1494V1.86821H13.4445C12.2893 2.62954 11.52 3.76667 11.52 5.296V8.704C11.52 10.2333 12.2893 11.388 13.4445 12.1494H8.39812Z" />
</svg>
