<svg width="17" height="14" viewBox="0 0 17 14"  xmlns="http://www.w3.org/2000/svg">
    <g clip-path="url(#clip0_206_14617)">
        <path d="M4.45654 2.63898C3.60342 2.63898 2.85654 3.40371 2.85654 4.27864C2.85654 5.15357 3.60342 5.9183 4.45654 5.9183C5.30966 5.9183 6.05654 5.15357 6.05654 4.27864C6.05654 3.40371 5.3103 2.63898 4.45654 2.63898ZM4.45654 5.48084C3.81654 5.48084 3.28342 4.93451 3.28342 4.27864C3.28342 3.62278 3.81654 3.07644 4.45654 3.07644C5.09654 3.07644 5.62966 3.62278 5.62966 4.27864C5.6303 4.93451 5.09654 5.48084 4.45654 5.48084Z" />
        <path d="M10.1102 4.27864C10.1102 5.15291 10.8571 5.9183 11.7102 5.9183C12.5633 5.9183 13.3102 5.15357 13.3102 4.27864C13.3102 3.40371 12.5633 2.63898 11.7102 2.63898C10.8571 2.63898 10.1102 3.40438 10.1102 4.27864ZM12.8833 4.27864C12.8833 4.93451 12.3502 5.48084 11.7102 5.48084C11.0702 5.48084 10.5371 4.93451 10.5371 4.27864C10.5371 3.62278 11.0702 3.07644 11.7102 3.07644C12.3502 3.07644 12.8833 3.62278 12.8833 4.27864Z" />
        <path d="M4.45654 8.1037C3.60342 8.1037 2.85654 8.86843 2.85654 9.74336C2.85654 10.6183 3.60342 11.383 4.45654 11.383C5.30966 11.383 6.05654 10.6183 6.05654 9.74336C6.05654 8.86843 5.3103 8.1037 4.45654 8.1037ZM4.45654 10.9456C3.80886 10.9456 3.28342 10.4072 3.28342 9.74336C3.28342 9.07948 3.80886 8.54117 4.45654 8.54117C5.10486 8.54117 5.62966 9.07948 5.62966 9.74336C5.6303 10.4072 5.10486 10.9456 4.45654 10.9456Z" />
        <path d="M11.7102 8.1037C10.8571 8.1037 10.1102 8.86843 10.1102 9.74336C10.1102 10.6183 10.8571 11.383 11.7102 11.383C12.5633 11.383 13.3102 10.6183 13.3102 9.74336C13.3102 8.86843 12.5633 8.1037 11.7102 8.1037ZM11.7102 10.9456C11.0702 10.9456 10.5371 10.3992 10.5371 9.74336C10.5371 9.0875 11.0702 8.54117 11.7102 8.54117C12.3502 8.54117 12.8833 9.0875 12.8833 9.74336C12.8833 10.3986 12.3502 10.9456 11.7102 10.9456Z" />
        <path d="M11.8165 1H10.7496H8.61646H8.40334H7.76334H7.55022H5.41646H4.35022H2.08334C0.978775 1 0.0833435 1.89543 0.0833435 3V11C0.0833435 12.1046 0.978774 13 2.08334 13H4.35022H5.41646H7.55022H10.7496H11.8165H14.0833C15.1879 13 16.0833 12.1046 16.0833 11V3C16.0833 1.89543 15.1879 1 14.0833 1H11.8165ZM7.65522 8.13838C7.16818 7.99211 6.91022 7.5306 6.91022 6.98895C6.91022 6.44729 7.16818 5.98511 7.65522 5.83951V8.13838ZM8.48357 5.83951C8.97061 5.98578 9.25646 6.44729 9.25646 6.98895C9.25646 7.5306 8.97061 7.99278 8.48357 8.13838V5.83951ZM0.876065 5.79833C1.51606 5.79833 1.89646 6.35512 1.89646 7.01099C1.89646 7.66685 1.51606 8.20273 0.876065 8.20273V5.79833ZM5.41646 12.147H4.35022H2.07606C1.41332 12.147 0.876065 11.6097 0.876065 10.947V8.65065C1.72918 8.65065 2.32334 7.88525 2.32334 7.01099C2.32334 6.13672 1.72918 5.3795 0.876065 5.3795V3.07025C0.876065 2.40861 1.4116 1.87181 2.07324 1.87025L4.35022 1.8649H7.65522V5.38602C6.94354 5.54698 6.48334 6.22622 6.48334 6.98895C6.48334 7.75167 6.94354 8.43091 7.65522 8.59188V12.147H5.41646ZM15.2715 8.22644C14.6315 8.22644 14.2702 7.66685 14.2702 7.01099C14.2702 6.35512 14.6315 5.82204 15.2715 5.82204V8.22644ZM15.2715 5.37132C14.4184 5.37132 13.8433 6.13672 13.8433 7.01099C13.8433 7.88525 14.4184 8.65065 15.2715 8.65065V10.947C15.2715 11.6097 14.7343 12.147 14.0715 12.147H11.8165H10.7496H8.61646H8.48357V8.59188C9.19525 8.43091 9.68334 7.75167 9.68334 6.98895C9.68334 6.22622 9.19525 5.54698 8.48357 5.38602V1.8649H10.7924H11.8165H14.0715C14.7343 1.8649 15.2715 2.40215 15.2715 3.0649V5.37132Z" />
    </g>
    <defs>
        <clipPath id="clip0_206_14617">
            <rect width="16" height="14"  transform="translate(0.0833435)"/>
        </clipPath>
    </defs>
</svg>
