<svg width="16" height="14" viewBox="0 0 16 14" xmlns="http://www.w3.org/2000/svg">
    <path d="M8.32 1H7.68H2C0.895433 1 0 1.89543 0 3V3.66667V4.33333V9.66667V10.3333V11C0 12.1046 0.895431 13 2 13H7.68H8.32H14C15.1046 13 16 12.1046 16 11V10.3333V9.66667V4.33333V3.66667V3C16 1.89543 15.1046 1 14 1H8.32ZM0.794607 3.06545C0.794607 2.40271 1.33187 1.86545 1.99461 1.86545H7.57155V3.66667H4.48H3.84H0.794607V3.06545ZM4.48 7.33333H7.57155V9.47266H4.48V7.33333ZM8.39545 7.33333H11.52V9.47266H8.39545V7.33333ZM8.39545 6.66667V4.52392H11.52V6.66667H8.39545ZM7.57155 6.66667H4.48V4.52392H7.57155V6.66667ZM0.794607 4.52392H3.65716V6.66667V7.33333V9.47266H0.794607V4.52392ZM1.99461 12.1346C1.33187 12.1346 0.794607 11.5973 0.794607 10.9346V10.3333H7.57155V12.1346H1.99461ZM15.1979 10.9346C15.1979 11.5973 14.6606 12.1346 13.9979 12.1346H8.39545V10.3333H11.52H12.16H15.1979V10.9346ZM15.1979 9.47266H12.3514V7.33333V6.66667V4.52392H15.1979V9.47266ZM12.16 3.66667H11.52H8.39545V1.86545H13.9979C14.6606 1.86545 15.1979 2.40271 15.1979 3.06545V3.66667H12.16Z"/>
</svg>
