<svg width="20" height="14" viewBox="0 0 20 14" fill="none" xmlns="http://www.w3.org/2000/svg">
<rect width="20" height="14" rx="2" fill="white"/>
<rect width="20" height="14" fill="#19BFBF"/>
<path fill-rule="evenodd" clip-rule="evenodd" d="M10 12.1333C12.8929 12.1333 15.2381 9.83503 15.2381 6.99997C15.2381 4.16491 12.8929 1.86664 10 1.86664C7.10708 1.86664 4.7619 4.16491 4.7619 6.99997C4.7619 9.83503 7.10708 12.1333 10 12.1333ZM14.2596 7.46664C14.0828 9.03405 13.0258 10.3415 11.5838 10.9039C12.0481 9.97704 12.3194 8.76959 12.3716 7.46664H14.2596ZM11.4183 7.46664C11.3488 9.04097 10.9293 10.4324 10.2754 11.1914C10.1843 11.1971 10.0925 11.2 10 11.2C9.9075 11.2 9.81568 11.1971 9.72464 11.1914C9.07066 10.4324 8.65121 9.04097 8.58168 7.46664H11.4183ZM7.62835 7.46664C7.68059 8.76959 7.95186 9.97704 8.4162 10.9039C6.97418 10.3415 5.91725 9.03405 5.74044 7.46664H7.62835ZM8.58168 6.53331H11.4183C11.3488 4.95897 10.9293 3.56757 10.2754 2.8085C10.1843 2.80284 10.0925 2.79997 10 2.79997C9.9075 2.79997 9.81568 2.80284 9.72464 2.8085C9.07066 3.56757 8.65121 4.95897 8.58168 6.53331ZM8.41619 3.09609C7.95186 4.02291 7.68059 5.23035 7.62835 6.53331H5.74044C5.91724 4.96589 6.97418 3.65843 8.41619 3.09609ZM14.2596 6.53331H12.3716C12.3194 5.23035 12.0481 4.0229 11.5838 3.09609C13.0258 3.65843 14.0828 4.96589 14.2596 6.53331Z" fill="white"/>
</svg>
