<svg xmlns="http://www.w3.org/2000/svg" xmlns:xlink="http://www.w3.org/1999/xlink" width="0" height="0" class="hidden">
  <symbol viewBox="0 0 32 32" id="basketball 3x3">
    <path d="M28.556 6.135a14.01 14.01 0 0 0-4.009 8.927H32c-.197-3.36-1.477-6.441-3.444-8.927ZM16.938 0v15.063h5.735a15.884 15.884 0 0 1 4.64-10.34C24.636 2.053 20.95.235 16.938 0ZM24.547 16.938c.23 3.467 1.71 6.658 4.009 8.99 1.967-2.486 3.247-5.63 3.444-8.99h-7.453ZM4.688 4.723a15.884 15.884 0 0 1 4.64 10.34h5.735V0C11.05.235 7.364 2.052 4.687 4.723ZM22.672 16.938h-5.735V32a16.09 16.09 0 0 0 10.375-4.66c-2.685-2.68-4.404-6.376-4.64-10.402ZM9.328 16.938c-.236 4.026-1.955 7.723-4.64 10.402A16.09 16.09 0 0 0 15.063 32V16.937H9.326ZM0 16.938c.197 3.36 1.477 6.504 3.444 8.99 2.299-2.332 3.778-5.523 4.009-8.99H0ZM3.444 6.135C1.477 8.62.197 11.702 0 15.062h7.452a14.01 14.01 0 0 0-4.008-8.927Z"></path>
  </symbol>
  <symbol viewBox="0 0 32 32" id="53">
    <path d="M27.76 5.172a23.666 23.666 0 0 0-.331 3.978c0 .696.031 1.383.089 2.057a69.228 69.228 0 0 1 3.71-.105 16.02 16.02 0 0 0-3.467-5.93ZM26.785 4.2A15.937 15.937 0 0 0 13.286.241c4.135 2.207 7.449 6.279 9.51 11.414 1.151-.155 2.343-.28 3.58-.372-.06-.698-.09-1.41-.09-2.134 0-1.711.172-3.372.499-4.95ZM22.062 12.912c-1.722.26-3.342.587-4.866.97 1.095 2.427 1.72 5.192 1.72 8.125 0 3.809-.851 7.232-2.454 9.986a16.011 16.011 0 0 0 3.998-.623c.895-.26 1.765-.599 2.6-1.01.087-.042.17-.087.256-.131l.132-.673c.271-1.704.552-3.466.552-5.264 0-4.09-.69-7.964-1.938-11.38ZM31.55 12.245a67.839 67.839 0 0 0-3.904.1c.502 3.688 1.847 6.825 3.647 8.367a15.939 15.939 0 0 0 .256-8.467ZM4.058 5.721c-.093 0-.185-.005-.278-.008a16.051 16.051 0 0 0-3.56 7.66 16.003 16.003 0 0 0-.156 1.234l-.014.198c-.03.398-.05.798-.05 1.202 0 1.654.253 3.25.72 4.753 3.27-2.76 8.068-5.716 14.831-7.622-2.448-4.46-6.684-7.417-11.493-7.417Z"></path>
    <path d="m11.5.655-.047.014a15.83 15.83 0 0 0-1.135.385c-.055.02-.11.043-.165.064-.37.146-.735.301-1.09.473-.01.004-.019.01-.028.015a15.52 15.52 0 0 0-.991.53c-.067.038-.135.075-.201.115-.316.188-.625.386-.926.594l-.178.127c-.646.461-1.256.966-1.823 1.513l-.057.054c-.02.02-.039.042-.06.062 5.016.29 9.383 3.514 11.884 8.234a52.537 52.537 0 0 1 4.956-1.011C19.465 6.549 15.913 2.502 11.5.655ZM26.497 12.42a59.634 59.634 0 0 0-3.285.332c1.244 3.486 1.931 7.408 1.931 11.541 0 1.796-.261 3.517-.526 5.185a16.084 16.084 0 0 0 6.273-7.628c-2.218-1.655-3.836-5.192-4.393-9.43ZM16.08 14.176C9.16 16.09 4.341 19.129 1.134 21.91c2.252 5.65 7.632 9.726 13.991 10.07 1.728-2.663 2.647-6.1 2.647-9.975 0-2.837-.616-5.505-1.694-7.83ZM6.072 25.596a.57.57 0 0 1-.804-.089 30.95 30.95 0 0 0-.415-.5c-.485-.578-1.035-1.233-1.364-1.886a.571.571 0 0 1 1.02-.515c.27.535.774 1.135 1.22 1.665.15.18.297.355.43.521a.572.572 0 0 1-.088.804Zm6.468 3.738a.572.572 0 0 1-.725.357c-1.166-.397-2.33-.978-3.556-1.776a.572.572 0 1 1 .623-.959c1.147.746 2.227 1.286 3.301 1.653a.572.572 0 0 1 .357.725Z"></path>
  </symbol>
  <symbol viewBox="0 0 32 32" id="118">
    <path d="m14.32 27.433 3.113 1.556c.01.005.018.01.027.017l1.968-3.406a2.919 2.919 0 0 0-.64-3.688l-3.704-3.146a1.209 1.209 0 0 1-.271-.33.581.581 0 0 1-.31-.012l-5.087-1.697a3.518 3.518 0 0 0 1.237 2.88l4.751 4.03c.43.368.536.99.255 1.48l-1.34 2.316ZM20.42 16.412l2.783-2.088-.357-.304a1.825 1.825 0 0 1-.386-.455l-1.545-2.685A4.139 4.139 0 0 0 19.2 9.264l-2.24-1.118a2.929 2.929 0 0 0-3.867 1.205L9.85 15.235c-.075.138-.14.282-.195.429.005 0 .016.005.022.005l5.114 1.703a.928.928 0 0 1 .109-.19l3.13-4.274 1.648 2.848c.131.233.304.441.51.613l.152.125a.29.29 0 0 1 .08-.082ZM24.51 17.61a1.819 1.819 0 0 0-.341-2.462l-.13-.113a.442.442 0 0 1-.087.086l-2.777 2.083.802.683a1.756 1.756 0 0 0 2.534-.276ZM23.241 3.07C22.997 1.784 22.097 0 18.968 0c-4.59 0-4.361 3.867-4.014 5.646.074.402.37.726.765.835a1.1 1.1 0 0 0 .298.044h1.323a1.08 1.08 0 0 0 1.085-1.085 1.113 1.113 0 0 1 1.101-1.101h2.663a1.074 1.074 0 0 0 .58-.168c.37-.234.558-.672.472-1.101ZM7.458 18.831l3.108-9.828.003-.014 2.286-7.224A.542.542 0 1 0 13.18.732l-.517-.163a.542.542 0 0 0-.68.353L9.992 7.22a1.446 1.446 0 0 0-.488-.255 1.627 1.627 0 0 0-2.04 1.058l-1.638 5.174a.543.543 0 0 1-.678.352l-1.036-.325a1.08 1.08 0 0 0-1.361.705l-.33 1.036a1.096 1.096 0 0 0 .71 1.36l1.035.326a.546.546 0 0 1 .353.683l-.163.509-.004.006-.652 2.07-.517-.164a.542.542 0 1 0-.326 1.034l1.034.325 3.102.982a.542.542 0 0 0 .328-1.034l-.518-.163.65-2.06.005-.008Zm-1.69 1.741-1.034-.325.492-1.555 1.03.33-.488 1.55ZM19.634 17.318l-.135-.114c-.027-.027-.06-.049-.087-.076l-2.793 1.518.89.754 2.793-1.518-.668-.564ZM25.503 15.056l1.877-1.02a.543.543 0 1 0-.521-.954l-2.099 1.139.125.114c.243.206.452.45.618.721Z"></path>
    <path d="M11.271 21.554 4.75 25.098l-.465-.934a.542.542 0 1 0-.97.485l.482.967-1.887 1.025a.543.543 0 1 0 .52.955l1.852-1.006.657 1.313a.543.543 0 0 0 .97-.485l-.673-1.347 6.925-3.763-.89-.754ZM19.526 5.424a2.196 2.196 0 0 1-2.186 2.185h-.933a3.276 3.276 0 0 0 2.56 1.096 3.82 3.82 0 0 0 3.78-3.357c-.181.05-.37.076-.558.076h-2.663ZM29.831 28.203c-.3 0-.542.243-.542.543a2.17 2.17 0 0 1-2.17 2.169H16.3c.1-.1.185-.213.255-.336l.363-.635-3.113-1.556-.027-.017-.212.369c-.411.692-.33 1.57.201 2.175H5.424a.542.542 0 0 0 0 1.085H27.12a3.257 3.257 0 0 0 3.255-3.254c0-.3-.243-.543-.543-.543Z"></path>
  </symbol>
  <symbol viewBox="0 0 32 32" id="57">
    <path d="M13.029 15.661c3.704.43 8.157-.946 9.552-6.09.767-2.832.506-5.08-.775-6.678-2.485-3.101-8.04-2.89-8.1-2.887-.014 0-.125-.005-.312-.005-1.101 0-4.857.171-7.175 2.443-1.362 1.338-2.014 3.203-1.933 5.543a6.32 6.32 0 0 0 .525 2.316c1.316 3.029 4.876 4.972 8.218 5.358Zm-6.98-8.78a.571.571 0 0 1-.434-.68c.775-3.502 3.71-4.621 6.036-4.944a.572.572 0 1 1 .157 1.133c-1.967.272-4.445 1.197-5.077 4.057a.571.571 0 0 1-.681.435ZM11.714 27.428h8v2.286h-8v-2.286Z"></path>
    <path d="M26.727 7.237c-.705-.43-1.764-.11-2.617.292a13.467 13.467 0 0 1-.429 2.343c-1.407 5.192-5.534 7.006-9.367 7.006a12.556 12.556 0 0 1-9.376-4.223c.214 3.397.837 8.005 2.556 11.345H9.43a.571.571 0 1 1 0 1.142H7.714v6.286c0 .316.256.572.572.572h10.857a.571.571 0 0 0 .571-.572v-.571h-8a1.143 1.143 0 0 1-1.143-1.143v-2.286c0-.631.512-1.143 1.143-1.143h8v-1.143h-7.428a.571.571 0 0 1 0-1.142h7.795c1.062-.89 7.633-6.673 7.633-13.715 0-1.6-.342-2.655-.987-3.048Zm-9.543 14.58a.571.571 0 1 1-.655.936L14 20.983l-2.53 1.771a.572.572 0 0 1-.655-.936l2.189-1.533-2.188-1.532a.571.571 0 0 1 .654-.936l2.53 1.77 2.53-1.77a.571.571 0 1 1 .655.935l-2.188 1.533 2.187 1.532Z"></path>
  </symbol>
  <symbol xmlns="http://www.w3.org/2000/svg" viewBox="0 0 16 16" id="101">
    <path d="M12.5 4.8c-2-2-4.4-3.5-7-4.4-.7.2-1.4.6-2 1 2.8.8 5.3 2.4 7.4 4.4l1.6-1zm-4 5.9c2.8-.8 5.3-2.3 7.4-4.3-.1-.7-.4-1.3-.7-1.9L8.5 8.3v2.4zm0 .9v1.9c2.7-.7 5.2-2.1 7.4-3.9 0-.5.1-1 .1-1.6v-.5c-2.1 1.9-4.7 3.4-7.5 4.1zm-3 4c.6.2 1.3.3 2 .4V8.3l-2-1.2c-.7 2.8-.7 5.8 0 8.5zM3 5.7c-.7 2.7-.8 5.5-.3 8.3.5.5 1.2.9 1.8 1.2-.7-2.8-.6-5.8.2-8.6L3 5.7zm7.1.6c-2-2-4.7-3.5-7.4-4.2-.6.4-1 .9-1.4 1.5L8 7.5l2.1-1.2zM0 8c0 1.8.6 3.4 1.5 4.7-.3-2.5-.1-5.1.6-7.5L.9 4.4C.3 5.5 0 6.7 0 8zm8.5 8c3.1-.2 5.7-2.1 6.8-4.7-2.1 1.5-4.4 2.6-6.8 3.2V16zm4.9-11.6l1.3-.8C13.2 1.4 10.8 0 8 0h-.9c2.4 1.1 4.5 2.6 6.3 4.4z"></path>
  </symbol>
  <symbol   id="113" xmlns="http://www.w3.org/2000/svg"  xml:space="preserve" viewBox="0 0 462.9 462.9">
    <g transform="translate(0 -540.36)">
      <g>
        <g>
          <path d="M246.1,862.16h-29.2c-4.1,0-7.5,3.4-7.5,7.5s3.4,7.5,7.5,7.5h29.2c4.1,0,7.5-3.4,7.5-7.5S250.2,862.16,246.1,862.16z"/>
          <path d="M330.9,862.16h-29.2c-4.1,0-7.5,3.4-7.5,7.5s3.4,7.5,7.5,7.5h29.2c4.2,0,7.5-3.4,7.5-7.5S335,862.16,330.9,862.16z"/>
          <path d="M161.3,862.16h-29.2c-4.1,0-7.5,3.4-7.5,7.5s3.4,7.5,7.5,7.5h29.2c4.1,0,7.5-3.4,7.5-7.5S165.4,862.16,161.3,862.16z"/>
          <path d="M56.8,788.76v-34c0-4.1-3.4-7.5-7.5-7.5c-4.1,0-7.5,3.4-7.5,7.5v34c0,4.1,3.4,7.5,7.5,7.5
				C53.4,796.26,56.8,792.86,56.8,788.76z"/>
          <path d="M406.2,754.76v34c0,4.1,3.4,7.5,7.5,7.5c4.2,0,7.5-3.4,7.5-7.5v-34c0-4.1-3.4-7.5-7.5-7.5
				C409.6,747.26,406.2,750.66,406.2,754.76z"/>
          <path d="M330.9,666.36h-29.2c-4.1,0-7.5,3.4-7.5,7.5s3.4,7.5,7.5,7.5h29.2c4.2,0,7.5-3.4,7.5-7.5S335,666.36,330.9,666.36z"/>
          <path d="M132.1,681.36h29.2c4.1,0,7.5-3.4,7.5-7.5s-3.4-7.5-7.5-7.5h-29.2c-4.1,0-7.5,3.4-7.5,7.5S128,681.36,132.1,681.36z"/>
          <path d="M87.1,850.46c-11.3-7.2-18.4-14.5-22.5-22.8c-1.8-3.8-6.3-5.3-10-3.5c-3.8,1.8-5.3,6.3-3.5,10
				c5.3,10.9,14.2,20.1,27.9,28.9c1.2,0.8,2.6,1.2,4,1.2c2.5,0,4.9-1.2,6.4-3.4C91.6,857.36,90.6,852.66,87.1,850.46z"/>
          <path d="M408.3,824.06c-3.7-1.8-8.2-0.2-10,3.5c-4.8,10.1-14,17.6-21.5,23.1c-3.3,2.5-4,7.2-1.6,10.5c1.5,2,3.8,3.1,6.1,3.1
				c1.5,0,3.1-0.5,4.3-1.6c8.9-6.5,19.9-15.6,26.2-28.6C413.6,830.36,412,825.86,408.3,824.06z"/>
          <path d="M54.3,717.86c1.1,0.6,2.4,0.9,3.6,0.9v0c2.6,0,5.1-1.4,6.6-3.8c4.9-8.8,13.4-17,22.1-21.5c3.6-1.9,5.1-6.4,3.2-10.1
				c-1.9-3.6-6.4-5.1-10.1-3.2c-11.4,5.8-22,16.1-28.3,27.5C49.4,711.26,50.7,715.86,54.3,717.86z"/>
          <polygon points="405.1,718.76 405.1,718.76 405.1,718.76 /"/>
          <path d="M398.5,714.86c1.4,2.5,4,3.9,6.6,3.9c1.3,0,2.5-0.3,3.6-0.9c3.6-2,4.9-6.6,2.9-10.2c-5.6-10.1-13.2-21.3-27.3-27.7
				c-3.7-1.7-8.2-0.1-9.9,3.7c-1.7,3.7-0.1,8.2,3.7,9.9C388.2,698.16,393.8,706.46,398.5,714.86z"/>
          <path d="M342.8,628.26H120.2C53.9,628.26,0,683.46,0,751.36v42.2c0,32.8,12.5,63.5,35.1,86.4c22.6,22.8,52.8,35.4,85,35.4h222.7
				c32.2,0,62.4-12.6,85-35.4c22.7-22.9,35.1-53.5,35.1-86.4v-42.2C463,683.46,409.1,628.26,342.8,628.26z M239,643.26h26.1v23.1
				H239V643.26z M321.6,719.46c23.2,0,42.9,19.6,42.9,42.8v20.4c0,22.9-19.2,41.5-42.9,41.5H141.4c-23.6,0-42.9-18.6-42.9-41.5
				v-20.4c0-23.2,19.6-42.8,42.9-42.8H321.6z M239,681.36h26.1v23.1H239V681.36z M197.9,643.26H224v23.1h-26.1V643.26z
				 M197.9,681.36H224v23.1h-26.1V681.36z M448.3,793.56H448c0,59.9-46.2,106.7-105.2,106.7H120.2c-59,0-105.2-46.9-105.2-106.7
				v-42.2c0-59.6,47.2-108.1,105.2-108.1h62.7v61.2h-41.5c-15.4,0-29.9,6.1-40.9,17.2c-10.9,11-16.9,25.4-16.9,40.6v20.4
				c0,31.1,26,56.5,57.9,56.5h180.3c31.9,0,57.9-25.3,57.9-56.5v-20.4c0-15.2-6-29.6-16.9-40.6c-11-11.1-25.5-17.2-40.9-17.2h-41.5
				v-61.2h62.7c58,0,105.2,48.5,105.2,108.1V793.56z"/>
        </g>
      </g>
    </g>
  </symbol>
  <symbol viewBox="0 0 32 32" id="75">
    <g clip-path="url(#a)">
      <path d="M9.383 7.167a3.583 3.583 0 1 0 0-7.167 3.583 3.583 0 0 0 0 7.167ZM-.003 29.106l6.379-6.378 2.89 2.89-6.379 6.379-2.89-2.89ZM11.981 12.791 24.77.003l7.225 7.225-12.788 12.788-7.226-7.225ZM5.536 19.234l2.227-2.226 7.225 7.225-2.227 2.227-7.225-7.226ZM9.09 15.68l1.563-1.563 7.225 7.226-1.563 1.563-7.225-7.225Z"></path>
    </g>
    <defs>
      <clipPath id="a">
        <path d="M0 0h32v32H0z"></path>
      </clipPath>
    </defs>
  </symbol>
  <symbol viewBox="0 0 32 32" id="cup">
    <g clip-path="url(#a)">
      <path d="M31.064 2.728a3.429 3.429 0 0 0-2.484-1.072H25.6A73.8 73.8 0 0 0 25.62 0H6.4c0 .568.008 1.12.02 1.656h-3c-.936 0-1.844.392-2.484 1.072a3.447 3.447 0 0 0-.928 2.568c.536 8.936 5.148 14.544 12.46 15.376L11.052 25.6a3.047 3.047 0 0 0-3.048 3.048V32H24.02v-3.352a3.047 3.047 0 0 0-3.048-3.048l-1.416-4.928c7.296-.84 11.904-6.444 12.436-15.376a3.458 3.458 0 0 0-.928-2.568ZM3.204 5.104a.236.236 0 0 1 .064-.18c.06-.064.132-.064.152-.064h3.152c.476 6.292 1.864 9.86 3.212 11.876-5.132-2.152-6.356-7.9-6.58-11.632Zm19.032 11.62c1.348-2.02 2.732-5.584 3.208-11.868h3.14c.024 0 .092 0 .152.064a.236.236 0 0 1 .064.18c-.228 3.732-1.448 9.464-6.564 11.624Z"></path>
    </g>
    <defs>
      <clipPath id="a">
        <path d="M0 0h32v32H0z"></path>
      </clipPath>
    </defs>
  </symbol>
  <symbol viewBox="0 0 32 32" id="cycling">
    <g clip-path="url(#a)">
      <path d="M12.191 11.313H32C31.37 5.03 24.374 0 16 0c-3.782 0-7.255 1.08-9.991 2.769-.472 1.55-.43 3.119.197 4.587a6.497 6.497 0 0 0 5.985 3.957Zm8.496-3.75h1.875v1.875h-1.875V7.562Zm-3.75 0h1.875v1.875h-1.875V7.562Zm-3.75 0h1.876v1.875h-1.876V7.562Z"></path>
      <path d="M4.48 8.092a8.273 8.273 0 0 1-.637-3.705C1.489 6.512 0 9.254 0 12.25c0 3.055 1.538 5.974 4.217 8.219l.262.218h.34c1.507 0 2.982-.223 4.426-.564l4.037 2.692c-.056.22-.095.447-.095.685 0 1.22.787 2.252 1.876 2.64V32h1.874v-5.86a2.808 2.808 0 0 0 1.875-2.64 2.78 2.78 0 0 0-.281-1.205l5.373-5.374c2.936-.08 5.822-1.456 7.662-3.733H12.19a8.37 8.37 0 0 1-7.71-5.096Zm11.804 8.845h4.953l-4.032 4.032A2.78 2.78 0 0 0 16 20.687c-.63 0-1.207.216-1.677.569l-2.757-1.839c1.375-.515 2.711-1.142 3.951-1.969l.767-.51Z"></path>
    </g>
    <defs>
      <clipPath id="a">
        <path d="M0 0h32v32H0z"></path>
      </clipPath>
    </defs>
  </symbol>
  <symbol viewBox="0 0 32 32" id="69">
    <path d="M27.36 4.64c.222.223.43.458.622.703L32 1.326 30.674 0l-4.018 4.018c.246.193.482.4.704.622ZM27.797 10.531a6.057 6.057 0 0 0-1.763-4.565 6.058 6.058 0 0 0-4.566-1.763c-1.34.065-2.606.592-3.652 1.5l8.488 8.488a6.04 6.04 0 0 0 1.493-3.66ZM13.975 11.425l-4.66 6.991 4.269 4.268 6.977-4.65 1.006-.625-6.977-6.977-.615.993ZM15.603 8.793l7.6 7.601 1.637-1.015-8.224-8.224-1.013 1.638ZM3.905 19 0 22.72l5.304 2.65 4.157-4.157-2.425-2.424L3.905 19ZM9.28 32 13 28.096l.211-3.132-2.424-2.425-4.157 4.157L9.28 32Z"></path>
  </symbol>
  <symbol viewBox="0 0 32 32" id="95">
    <g clip-path="url(#a)">
      <path d="M2.876 32c1.532 0 3.346-1.137 5.55-3.477 1.283-1.365 3.115-2.147 4.915-2.147h5.318c1.8 0 3.632.782 4.915 2.147 2.204 2.34 4.018 3.478 5.55 3.478 1.01 0 1.83-.58 2.31-1.63.362-.786.566-1.852.566-3.167 0-5.435-3.517-15.89-8.9-15.89-1.626 0-2.385.517-3.055.974-.525.358-1.036.693-2.012.87.423-.665.78-1.465.78-2.313 0-2.008-1.97-3.79-2.194-3.986-.404-.356-1.556-1.656-1.556-2.64 0-.983 1.152-2.22 1.556-2.577a.938.938 0 0 0-1.236-1.41c-.225.197-2.195 1.98-2.195 3.988 0 2.007 1.97 3.852 2.193 4.047.404.356 1.557 1.594 1.557 2.578 0 .829-.817 1.834-1.316 2.343H14.17c-1.165-.183-1.676-.53-2.216-.9-.67-.457-1.429-.975-3.055-.975-5.383 0-8.9 10.456-8.9 15.891 0 4.329 2.018 4.797 2.876 4.797ZM23.5 22.564a.938.938 0 1 1 0-1.875.938.938 0 0 1 0 1.875Zm1.875-3.75a.938.938 0 1 1 0 1.875.938.938 0 0 1 0-1.875ZM23.5 16.938a.937.937 0 1 1 0 1.875.937.937 0 0 1 0-1.875Zm-1.875 1.875a.937.937 0 1 1 0 1.875.937.937 0 0 1 0-1.875Zm-7.5 0h3.75a.937.937 0 1 1 0 1.875h-3.75a.937.937 0 1 1 0-1.875Zm-7.5 0h.938v-.937a.937.937 0 1 1 1.875 0v.937h.937a.937.937 0 1 1 0 1.875h-.937v.938a.937.937 0 1 1-1.875 0v-.938h-.938a.937.937 0 1 1 0-1.875Z"></path>
    </g>
    <defs>
      <clipPath id="a">
        <path d="M0 0h32v32H0z"></path>
      </clipPath>
    </defs>
  </symbol>
  <symbol viewBox="0 0 32 32" id="58">
    <g clip-path="url(#a)">
      <path d="M21.339 19.49a3.499 3.499 0 0 0 3.493-3.496 3.499 3.499 0 0 0-3.493-3.496 3.499 3.499 0 0 0-3.493 3.496 3.499 3.499 0 0 0 3.493 3.496ZM7.177 9.944l5.156-1.72-2.091-6.455C9.635-.1 7.255-.596 5.944.807a2.568 2.568 0 0 0-.605 2.43l1.838 6.707Z"></path>
      <path d="M25.655 20.432c-1.618-1.82-4.793-.068-4.932 2.683 0 .02-.12 2.06-1.479 2.238-.357.046-1.306.17-1.78-1.294L12.95 10.126l-5.244 1.75 4.004 14.612c.08.337.81 3.093 3.368 4.583 2.118 1.233 4.584 1.107 6.936.385 5.732-1.76 5.318-9.139 3.641-11.024Z"></path>
    </g>
    <defs>
      <clipPath id="a">
        <path d="M0 0h32v32H0z"></path>
      </clipPath>
    </defs>
  </symbol>
  <symbol viewBox="0 0 32 32" id="65">
    <path d="M11.88 21.998h.187c1.58-.35 3.139-.796 4.666-1.333 1.127-.373 2.187-.727 3.094-.953a33.996 33.996 0 0 1 8.293-1.047h2.547v-1.333H26.1a22.044 22.044 0 0 0-6.52.98 23.656 23.656 0 0 1-6.913 1.02c-1.45 0-2.896-.134-4.32-.4l-4.667-.88-1.84-.447a1.386 1.386 0 0 0-.507 1.06c0 2.72 4.367 3.333 5.9 3.333H11.9h-.02Z"></path>
    <path d="m3.933 16.765 4.667.873c3.53.66 7.167.454 10.6-.6 2.235-.69 4.56-1.04 6.9-1.04h4.567v-3.333a.667.667 0 0 0-.57-.659.666.666 0 0 0-.31.026c-5.414 1.806-7.8-1.594-7.9-1.733a.667.667 0 0 0-.894-.207l-.446.266c-.58.354-1.174.667-1.78 1.014l1.16 2.326a.667.667 0 0 1-.942.868.667.667 0 0 1-.245-.268l-1.16-2.3c-.227.114-.447.234-.667.34l1.02 2.04a.667.667 0 0 1-.293.894.62.62 0 0 1-.307.06.666.666 0 0 1-.593-.367l-1.04-2.08-.667.313.914 1.834a.667.667 0 0 1-.614.966.667.667 0 0 1-.593-.366l-.967-1.927a57.064 57.064 0 0 1-9.493 2.9l-.513.12.166.04ZM20.16 20.978c-.853.213-1.893.56-2.993.927l-.274.093h11.774a2 2 0 0 0 2-2H28.12c-2.684 0-5.357.328-7.96.98Z"></path>
  </symbol>
  <symbol viewBox="0 0 32 32" id="99">
    <g clip-path="url(#a)">
      <path d="M16 32c8.822 0 16-7.178 16-16S24.822 0 16 0C7.176 0 0 7.178 0 16s7.177 16 16 16ZM2.151 19.243c.279.201.582.378.882.55l.093.053c2.375 1.357 5.402 2.075 8.755 2.075 1.071 0 2.173-.073 3.27-.217a21.35 21.35 0 0 0 2.808-.576c.095-.025.199-.05.306-.074.297-.07.633-.148.852-.281.013-.002.01-.033-.034-.125-.133-.257-.276-.514-.42-.771l-.061-.107a17.986 17.986 0 0 0-1.725-2.553l-.133-.167c-.225-.289-.457-.586-.736-.738-.11-.06-.408.012-.647.08a3.404 3.404 0 0 1-.32.081c-.36.066-.72.14-1.08.214-.642.133-1.306.27-1.973.355-.813.102-1.54.184-2.288.152-1.476-.06-3.028-.459-4.883-1.253-.809-.355-1.59-.85-2.391-1.518a2.383 2.383 0 0 1-.2-.206 2.675 2.675 0 0 0-.3-.297 14.082 14.082 0 0 1 1.082-3.707c-.099.405-.192.814-.268 1.226a6.879 6.879 0 0 1-.086.368c-.086.355-.195.796-.127 1.075.128.54.675.924 1.158 1.262.055.037.097.069.142.104.062.048.207.159.27.174.066-.067.139-.467.163-.6.014-.078.027-.145.04-.192.231-.928.601-1.937 1.098-2.998.112-.237.22-.474.33-.712.458-.996.933-2.026 1.537-2.982.816-1.305 1.855-2.56 3.367-4.073.022-.023.047-.043.07-.066.745-.3 1.52-.54 2.321-.71a31.7 31.7 0 0 0-.495.431c-.138.123-.275.245-.41.361-2.48 2.122-4.399 4.841-5.862 8.314-.368.87-.784 1.855-1.018 2.861-.022.093-.06.201-.101.315-.06.169-.144.402-.124.517.012.066.206.17.575.305.083.03.158.058.215.084.712.32 1.52.557 2.4.708.08.013.17.033.26.052.197.044.399.09.558.068.038-.022.074-.149.09-.21l.031-.1c.163-.48.321-.967.475-1.45.136-.426.305-.84.467-1.24.08-.2.161-.398.239-.599.572-1.5 1.09-2.755 1.756-4.006 1.317-2.445 3.089-4.496 5.128-5.931.336-.237.656-.445.967-.63.54.084 1.068.2 1.587.343-.846.327-1.595.825-2.21 1.277-2.971 2.174-4.688 5.292-5.605 7.525-.518 1.255-1.104 2.678-1.533 4.082-.036.125-.09.26-.145.4-.088.224-.18.456-.19.65a.415.415 0 0 1 .16-.023c.33 0 .68-.054 1.019-.107.138-.022.275-.043.409-.06l.19-.027c.85-.114 1.65-.223 2.47-.41a4.78 4.78 0 0 1 .413-.062c.325-.04.728-.09.89-.24.092-.086.153-.314.203-.497.03-.115.06-.225.096-.317l.124-.318a32.11 32.11 0 0 1 .768-1.864 17.603 17.603 0 0 1 3.415-4.938c.929-.953 2.1-1.772 3.214-2.246a7.305 7.305 0 0 1 1.099-.37l.077-.018.018-.005a14.37 14.37 0 0 1 1.892 1.74c-.267-.187-.53-.36-.78-.51l-.079-.048c-.186-.114-.379-.233-.555-.233-.504.07-.996.273-1.326.42l-.075.034a.614.614 0 0 0-.164.087c.029.037.247.23.34.314.072.063.136.12.177.166.595.65 1.117 1.278 1.596 1.917l.043.058c.801 1.063 1.631 2.162 2.314 3.34.638 1.092 1.218 2.407 1.724 3.906.173.51.296 1.043.393 1.59a14.108 14.108 0 0 1-.64 2.963c-.026-.4-.065-.82-.124-1.287-.113-.916-.258-1.89-.54-2.802-.75-2.443-2.105-4.57-3.202-6.15-.776-1.114-1.519-2.04-2.27-2.831-.04-.042-.09-.1-.146-.165-.129-.15-.428-.499-.574-.499-.162.044-.36.209-.534.354-.065.054-.126.105-.185.149-.61.47-1.164 1.017-1.846 1.83-.045.05-.104.11-.17.177-.11.11-.444.444-.433.562.024.12.31.362.462.491.089.075.17.143.228.202.668.667 1.289 1.346 1.846 2.02 1.643 2.011 3.436 4.441 4.27 7.232.54 1.805.843 3.387.923 4.835l.008.153c-.281.36-.579.706-.893 1.038.005-.433-.053-.893-.108-1.322-.019-.142-.037-.28-.051-.41-.302-2.71-1.054-5.101-2.237-7.105-.48-.82-1.042-1.603-1.531-2.273-.849-1.165-1.788-2.23-2.676-3.207a9.498 9.498 0 0 0-.694-.704c-.066-.058-.123-.108-.146-.116.01.005-.044.095-.068.133l-.484.808c-.439.734-.756 1.551-1.064 2.341l-.198.506a4.604 4.604 0 0 1-.136.304c-.12.251-.267.564-.238.752.019.116.195.272.337.398.087.077.17.151.233.222.487.538.94 1.129 1.303 1.705 1.209 1.924 2.529 4.232 3.16 6.768.265 1.053.362 2.158.276 3.109a5.271 5.271 0 0 1-.227 1.14c-.016.05-.048.14-.041.17l.039.008a14.116 14.116 0 0 1-4.793 1.192 19.501 19.501 0 0 0 1.95-.676c.197-.077.4-.145.605-.213.385-.129.785-.262 1.112-.465.097-.06.133-.163.188-.341.127-.425.186-.82.186-1.203v-.077c.002-.068.007-.25-.027-.29-.027.006-.087.023-.136.037l-.076.02c-.145.037-.292.072-.44.106l-.325.078a24.25 24.25 0 0 1-2.729.526c-2.518.33-5.282.258-7.93-.206a19.507 19.507 0 0 1-2.5-.594 14.406 14.406 0 0 1-1.645-1.628c2.494 1.073 5.442 1.64 8.601 1.64 1.024 0 2.07-.06 3.106-.177.95-.11 1.87-.31 2.89-.542.094-.022.208-.04.328-.06.28-.045.626-.102.78-.215.04-.037.06-.188-.063-.697-.014-.056-.025-.107-.034-.149-.212-.934-.578-1.85-.904-2.636-.024-.056-.047-.126-.073-.2-.053-.159-.165-.487-.274-.523a.6.6 0 0 0-.16.043c-.039.014-.076.027-.11.037l-.065.02c-.288.091-.578.183-.87.266-.943.275-1.99.487-3.202.65-1.06.142-2.135.214-3.197.214-2.21 0-4.293-.303-6.19-.9a18.328 18.328 0 0 1-3.205-1.344c-.164-.47-.303-.952-.419-1.444Z"></path>
    </g>
    <defs>
      <clipPath id="a">
        <path d="M0 0h32v32H0z"></path>
      </clipPath>
    </defs>
  </symbol>
  <symbol viewBox="0 0 32 32" id="golf">
    <g clip-path="url(#a)">
      <path d="M21.07 21.394A12.116 12.116 0 0 1 16 22.5c-1.808 0-3.526-.396-5.07-1.106 1.43 1.395 3.799 4.335 4.1 8.731h-2.78a.938.938 0 0 0 0 1.875h7.5a.938.938 0 0 0 0-1.875h-2.78c.169-2.52 1.026-4.854 2.555-6.949a14.094 14.094 0 0 1 1.546-1.782ZM16 0C10.314 0 5.687 4.626 5.687 10.313c0 5.686 4.627 10.312 10.313 10.312 5.686 0 10.313-4.626 10.313-10.313C26.313 4.627 21.686 0 16 0Zm-5.625 11.25a.938.938 0 1 1 0-1.875.938.938 0 0 1 0 1.875Zm1.212-4.025A.937.937 0 1 1 12.912 5.9a.937.937 0 0 1-1.325 1.325Zm3.2 5.625a.937.937 0 1 1-1.325-1.325.937.937 0 0 1 1.326 1.325Zm1.876-3.75a.937.937 0 1 1-1.326-1.325.937.937 0 0 1 1.326 1.325Z"></path>
    </g>
    <defs>
      <clipPath id="a">
        <path d="M0 0h32v32H0z"></path>
      </clipPath>
    </defs>
  </symbol>
  <symbol viewBox="0 0 32 32" id="92">
    <path d="M20.375 6.967a7.455 7.455 0 0 0-.285 1.265l.997.41-.712-1.675ZM.18 30.466a.568.568 0 0 0 .079.877.636.636 0 0 0 .787-.112l14.145-13.903-.82-.805L.181 30.465ZM22.723 3.567a6.71 6.71 0 0 0-.55.48c-.299.302-.57.628-.81.977l2.398.985-1.038-2.442ZM20.147 11.65a6.662 6.662 0 0 1 1.37.062c.3.044.603.069.906.075l-.713-1.674-1.702-.7c.006.3.031.597.076.892.07.446.091.896.063 1.346Z"></path>
    <path d="M17.647 14.952a4.574 4.574 0 0 1 3.52-1.002 10.02 10.02 0 0 0 8.346-2.688c2.97-2.919 3.328-7.143.815-9.617-2.512-2.475-6.816-2.117-9.785.802a9.63 9.63 0 0 0-2.735 8.201 4.388 4.388 0 0 1-1.02 3.46l.859.844Zm1.247-6.365v-.004a8.557 8.557 0 0 1 1.125-3.564c.366-.645.82-1.239 1.348-1.765a7.154 7.154 0 0 1 4.177-2.076c.26-.027.521-.035.782-.026h.052c2.444.033 4.418 1.973 4.45 4.375a5.396 5.396 0 0 1-.026.818 6.53 6.53 0 0 1-1.105 2.892c-.293.438-.63.845-1.005 1.216a8.377 8.377 0 0 1-1.822 1.341c-.01.004-.017.011-.026.015a8.92 8.92 0 0 1-3.555 1.07c-.007 0-.013.003-.02.003h-.016a8.56 8.56 0 0 1-.668.034c-.416 0-.83-.031-1.241-.093a5.479 5.479 0 0 0-1.75.022.578.578 0 0 1-.502-.157.555.555 0 0 1-.158-.494 5.19 5.19 0 0 0 .022-1.717 7.995 7.995 0 0 1-.062-1.89Z"></path>
    <path d="m25.68 10.524-1.293-3.041-3.094-1.271 1.292 3.042 3.095 1.27ZM26.89 10.457c.355-.235.687-.502.993-.796.172-.171.336-.351.489-.54L25.888 8.1l1.002 2.356ZM23.627 11.708a7.754 7.754 0 0 0 1.288-.28l-1.704-.7.416.98ZM29.538 4.655a3.271 3.271 0 0 0-2.273-2.234l.67 1.575 1.603.659ZM29.38 7.39c.143-.376.24-.768.288-1.167.011-.098.014-.194.019-.29l-1.124-.463.817 1.92ZM28.357 7.896l-1.294-3.042-3.095-1.272 1.294 3.043 3.095 1.271ZM25.965 2.275c-.098.004-.195.007-.295.018a5.2 5.2 0 0 0-1.188.281l1.953.803-.47-1.102ZM2.33 6.223c.047.399.143.791.285 1.168l.82-1.92-1.123.461c.004.097.006.193.017.29ZM7.61 7.483l-1.293 3.04 3.096-1.269 1.291-3.042-3.094 1.27ZM4.115 9.661c.306.295.638.562.993.798L6.11 8.102l-2.484 1.02c.153.187.316.368.489.54ZM8.371 11.708l.416-.98-1.704.698c.42.13.851.225 1.288.282Z"></path>
    <path d="m17.23 16.13-.008-.006-.005-.007-1.614-1.586-.008-.005c-.002-.002 0-.006-.006-.008l-.062-.062a4.431 4.431 0 0 1-1.337-3.808 9.613 9.613 0 0 0-2.736-8.201A8.226 8.226 0 0 0 6.328.03 5.93 5.93 0 0 0 1.67 1.646 5.698 5.698 0 0 0 .027 6.223a7.971 7.971 0 0 0 2.458 5.037 10 10 0 0 0 8.346 2.69c.208-.03.418-.047.628-.047a4.67 4.67 0 0 1 3.246 1.36l.068.068 1.626 1.6 14.555 14.302c.203.216.532.26.787.108a.57.57 0 0 0 .078-.873L17.23 16.13Zm-4.166-3.937a.555.555 0 0 1-.159.495.579.579 0 0 1-.504.155 5.507 5.507 0 0 0-1.75-.022c-.41.063-.824.095-1.239.096-.223 0-.445-.016-.668-.033H8.73c-.007 0-.013-.004-.02-.004a8.936 8.936 0 0 1-3.56-1.072c-.006 0-.01-.007-.017-.01a8.373 8.373 0 0 1-1.827-1.347A7.839 7.839 0 0 1 2.3 9.236c-.004-.004-.005-.009-.009-.012A6.521 6.521 0 0 1 1.195 6.35a10.46 10.46 0 0 1-.027-.818c.035-2.403 2.01-4.343 4.455-4.375a5.707 5.707 0 0 1 .83.026 7.154 7.154 0 0 1 4.178 2.076 8.254 8.254 0 0 1 1.521 2.082 8.563 8.563 0 0 1 .953 3.247v.004c.053.63.033 1.264-.063 1.888a5.208 5.208 0 0 0 .022 1.713Z"></path>
    <path d="M9.575 11.787c.303-.006.606-.03.906-.075a6.663 6.663 0 0 1 1.37-.061 6.217 6.217 0 0 1 .064-1.347c.045-.295.07-.593.076-.891l-1.703.7-.713 1.674ZM9.824 4.049a6.728 6.728 0 0 0-.55-.48l-1.037 2.44 2.398-.984a7.028 7.028 0 0 0-.81-.976ZM6.328 2.294c-.1-.012-.198-.013-.297-.017L5.563 3.38l1.953-.804a5.174 5.174 0 0 0-1.188-.282ZM4.733 2.42A3.277 3.277 0 0 0 2.46 4.656l1.604-.66.67-1.574ZM11.623 6.967 10.91 8.64l.998-.41a7.447 7.447 0 0 0-.286-1.263ZM6.736 6.625 8.03 3.582 4.935 4.854 3.64 7.896l3.096-1.271ZM15.999 32c1.892 0 3.426-1.508 3.426-3.368 0-1.86-1.534-3.367-3.426-3.367-1.892 0-3.427 1.507-3.427 3.367S14.107 32 16 32Z"></path>
  </symbol>
  <symbol viewBox="0 0 32 32" id="55">
    <g clip-path="url(#a)">
      <path d="M28.104 14.364V9.232c0-1.668-1.529-2.959-3.186-2.57v-.141c0-.926-.49-1.743-1.224-2.202h-.338c-.226 0-1.13-.293-1.809.267-.645.53-.816 1.62-.816 2.122v2.645c0 .378-.296.703-.674.71a.687.687 0 0 1-.7-.688.907.907 0 0 0-.951-.905c-.487.024-.86.444-.86.93v8.081c0 .38-.308.688-.688.688h-.925c-.794 0-1.44.646-1.44 1.441 0 5.016-.079 5.285.381 5.773.453.48.985.933 1.57 1.571.144.143.101-.058.101 4.024a1 1 0 0 0 .998 1l8.562.022a1 1 0 0 0 1-1c.03-3.808-.066-3.668.083-3.841l1.634-1.908a6.982 6.982 0 0 0 1.68-4.543V17.19c0-1.42-1.04-2.603-2.398-2.825ZM14.531 24.504v-.009.01ZM3.443 12.844C8.264 11.01 13.6 6.067 14.725 1.044l.21-.931C7.143-.957.575 5.75 1.605 13.419c.728-.22 1.647-.503 1.838-.575Z"></path>
      <path d="M3.277 18.07a11.845 11.845 0 0 0 9.856 5.6c-.02-1.158-.015-1.786-.015-4.06a2.819 2.819 0 0 1 2.815-2.816h.238v-1.928C11.39 17.04 6.319 18.07 3.277 18.07ZM16.886.55l-.21.933c-1.279 5.71-7.068 11.156-12.522 13.23-.303.115-1.53.488-2.112.664.073.232.154.464.243.695.05-.003-.066-.002 1.531-.002 6.711-.461 12.038-3.301 12.354-3.403V9.375c0-1.645 1.694-2.742 3.186-2.093v-.574c0-1.426.631-3 1.976-3.59A11.832 11.832 0 0 0 16.886.55Z"></path>
    </g>
    <defs>
      <clipPath id="a">
        <path d="M0 0h32v32H0z"></path>
      </clipPath>
    </defs>
  </symbol>
  <symbol viewBox="0 0 32 32" id="90">
    <path d="M16 0c-2.156 0-4.223.665-5.94 1.875.311-.01 11.404-.014 11.88 0A10.292 10.292 0 0 0 16 0ZM16.938 27.313c0-1.06.366-2.027.96-2.813h-3.797c.595.786.961 1.753.961 2.813v1.875c0 .32-.033.634-.094.937h2.064a4.688 4.688 0 0 1-.095-.938v-1.875ZM17.875 9.375h-3.75a.938.938 0 0 0 0 1.875h3.75a.938.938 0 0 0 0-1.875Z"></path>
    <path d="M21.625 3.75h-11.25a8.437 8.437 0 0 0-8.438 8.438v11.374A8.437 8.437 0 0 0 10.376 32a2.813 2.813 0 0 0 2.813-2.813v-1.875a2.813 2.813 0 0 0-2.813-2.812H8.5a.938.938 0 0 1-.938-.938v-5.75A2.812 2.812 0 0 1 10.376 15h11.25a2.813 2.813 0 0 1 2.813 2.813v5.75c0 .517-.42.937-.938.937h-1.875a2.813 2.813 0 0 0-2.813 2.813v1.875A2.813 2.813 0 0 0 21.625 32a8.438 8.438 0 0 0 8.438-8.438V12.188a8.437 8.437 0 0 0-8.438-8.437Zm-3.75 9.375h-3.75a2.816 2.816 0 0 1-2.813-2.813A2.816 2.816 0 0 1 14.126 7.5h3.75a2.816 2.816 0 0 1 2.813 2.813 2.816 2.816 0 0 1-2.813 2.812Z"></path>
  </symbol>
  <symbol viewBox="0 0 32 32" id="51">
    <path d="M27.07 5.317C24.097 3.831 20.166 3.012 16 3.012s-8.098.819-11.07 2.305C1.75 6.907 0 9.096 0 11.481s1.75 4.574 4.93 6.164C7.903 19.13 11.834 19.95 16 19.95s8.098-.819 11.07-2.305c3.18-1.59 4.93-3.779 4.93-6.164s-1.75-4.574-4.93-6.164Z"></path>
    <path d="M27.909 19.323C24.68 20.937 20.452 21.825 16 21.825c-4.451 0-8.68-.889-11.909-2.502-1.714-.858-3.09-1.886-4.091-3.058v4.254c0 2.386 1.75 4.575 4.93 6.164 2.973 1.486 6.904 2.305 11.07 2.305s8.098-.819 11.07-2.305c3.18-1.59 4.93-3.779 4.93-6.164v-4.254c-1.002 1.172-2.377 2.2-4.091 3.058Z"></path>
  </symbol>
  <symbol viewBox="0 0 32 32" id="motorsports">
    <path d="M2.42 27.086A2.717 2.717 0 0 1 0 24.388v-7.383A16.427 16.427 0 0 1 16.005 1a16.005 16.005 0 0 1 14.497 9.284L11.81 8.796a3.274 3.274 0 0 0-3.543 3.264v3.562a7.2 7.2 0 0 0 4.35 6.606l16.744 7.239a6.038 6.038 0 0 1-3.428 1.094L2.42 27.086ZM32 24.426a6.145 6.145 0 0 1-1.162 3.591l-17.464-7.556a5.28 5.28 0 0 1-3.187-4.8v-3.6a1.364 1.364 0 0 1 .441-.96c.249-.23.575-.357.912-.356l19.73 1.565c.376 1.554.62 3.138.73 4.733v7.383ZM4.887 17.88a3.84 3.84 0 1 0-.096 7.68 3.84 3.84 0 0 0 .096-7.68Zm0 5.683a1.92 1.92 0 1 1-.096-3.84 1.92 1.92 0 0 1 .096 3.84Z"></path>
  </symbol>
  <symbol viewBox="0 0 32 32" id="61">
    <path d="M31.275 11.764A26.44 26.44 0 0 0 32 5.714v-4.26C32 .652 31.349 0 30.546 0h-4.26a26.436 26.436 0 0 0-6.05.725l11.04 11.039ZM.725 20.236A26.437 26.437 0 0 0 0 26.286v4.26C0 31.349.651 32 1.455 32h4.26a26.439 26.439 0 0 0 6.049-.725L.724 20.236ZM17.079 1.682A26.122 26.122 0 0 0 1.68 17.079l13.24 13.24A26.122 26.122 0 0 0 30.32 14.923l-13.24-13.24Zm5.767 12.438a1.454 1.454 0 0 1-2.055 0h-.001l-.426-.426L18.057 16l.426.427a1.454 1.454 0 1 1-2.057 2.056L16 18.057l-2.307 2.307.426.426a1.454 1.454 0 1 1-2.056 2.057l-2.91-2.909a1.455 1.455 0 0 1 2.057-2.057l.426.426 2.307-2.306-.426-.427a1.455 1.455 0 0 1 2.057-2.056l.426.426 2.307-2.307-.426-.426a1.455 1.455 0 0 1 2.056-2.057l2.91 2.91c.575.559.603 1.464.044 2.04-.01.01-.02.02-.044.016Z"></path>
  </symbol>
  <symbol viewBox="0 0 32 32" id="94">
    <path d="M15.5 10a.5.5 0 1 0 0-1 .5.5 0 0 0 0 1ZM23.415 8.429l3.21-1.147c-.378-.39-.782-.754-1.21-1.088l-2.351.968.35 1.267ZM18.5 18a1 1 0 1 0 0-2 1 1 0 0 0 0 2ZM21.66 9.055l.81-.29-.338-1.22-2.203.908A1.496 1.496 0 0 0 19 9.84V15h1.149a2.516 2.516 0 0 1-.149-.854V11.41a2.504 2.504 0 0 1 1.66-2.355ZM16.27 25.813l1.23 1.229c.197-.896.289-1.813.271-2.73l-1.5 1.501ZM14.062 28.021c.918.017 1.834-.074 2.73-.272l-1.229-1.229-1.5 1.501ZM19.44 18.764a1.994 1.994 0 0 1-2.09-.13c.27.533.505 1.083.701 1.646a.5.5 0 1 1 .21.66c.102.35.189.703.26 1.06h3.625a1.493 1.493 0 0 0 1.393-.943L24.362 19H20.5c-.366 0-.728-.08-1.06-.236ZM21.5 20a.5.5 0 1 1 0 1 .5.5 0 0 1 0-1ZM5.75 12.291a11.624 11.624 0 0 0-2.73.272l1.23 1.23 1.5-1.502ZM12.735 22.278l1.414 1.414 2.99-2.99a12.524 12.524 0 0 0-7.779-7.778l-2.99 2.99 1.415 1.414.353-.354a.5.5 0 0 1 .708.707l-.354.354.707.707.354-.354a.5.5 0 0 1 .707.708l-.354.353.707.707.354-.353a.5.5 0 0 1 .707.707l-.354.353.707.708.354-.354a.5.5 0 0 1 .707.707l-.353.354ZM2.313 13.27c-.198.897-.29 1.813-.272 2.73l1.501-1.5-1.229-1.23Z"></path>
    <path d="M16.511 17.212A2 2 0 0 1 18 15.063V9.84a2.492 2.492 0 0 1 1.548-2.311l4.888-2.013c-1.677-1.03-3.577-1.547-5.62-1.513-4.721.077-8.881 3.191-10.298 7.639a13.363 13.363 0 0 1 6.338 3.565 13.614 13.614 0 0 1 1.655 2.006ZM14 9.5a1.5 1.5 0 1 1 3 0 1.5 1.5 0 0 1-3 0ZM7.067 12.39l-4.928 4.927c.053.402.126.801.219 1.195l5.904-5.903a11.93 11.93 0 0 0-1.195-.22ZM17.454 21.8l-5.904 5.905c.395.093.794.166 1.196.218l4.927-4.927c-.052-.402-.125-.8-.219-1.195ZM12.028 22.985l-.354.354a.5.5 0 0 1-.707-.707l.353-.354-.707-.707-.353.353a.5.5 0 0 1-.707-.706l.353-.354-.707-.707-.353.353a.5.5 0 0 1-.707-.707l.353-.354-.707-.707-.354.354a.5.5 0 0 1-.707-.707l.354-.354-1.414-1.414-2.99 2.99a12.524 12.524 0 0 0 7.778 7.778l2.99-2.99-1.414-1.414ZM28.5 15h-3.381l-1.47-5.594-.945.338L24.084 15h-2.819c.168.243.404.43.678.539l1.153.461h1.252l.462 1.762-3.238-1.295a2.51 2.51 0 0 1-.751-.467h-.59a1.993 1.993 0 0 1 .013 1.977c.085.015.17.023.256.023h4.262l.067-.168.687 2.618a.534.534 0 0 0 .028.078A2.505 2.505 0 0 0 27.823 22H30.5a.5.5 0 0 0 .5-.5v-4a2.503 2.503 0 0 0-2.5-2.5Zm1.5 6h-2.177a1.503 1.503 0 0 1-1.351-.848L26.169 19H30v2Zm0-3h-4.093l-.027-.103-.23-.876L25.38 16H28.5a1.502 1.502 0 0 1 1.5 1.5v.5Z"></path>
  </symbol>
  <symbol viewBox="0 0 32 32" id="ski jumping">
    <path d="M30.616 4.414a4.414 4.414 0 1 1-8.827 0 4.414 4.414 0 0 1 8.827 0ZM19.802 13.91a1.569 1.569 0 0 0-2.561-.648L1.375 28.138v3.31l17.98-15.864a1.568 1.568 0 0 0 .447-1.673ZM24.029 17.434 6.34 32h3.862l15.732-12.18a1.527 1.527 0 1 0-1.906-2.386ZM2.484 25.583l1.694-1.589-.519-.518-.684.789c-.32.364-.495.833-.491 1.318ZM7.113 29.936l1.644-1.357-.772-.772-.409.469a2 2 0 0 0-.463 1.66Z"></path>
    <path d="M19.77 5.015a2.44 2.44 0 0 0-3.449.237L10.7 11.691a1.216 1.216 0 0 0 .122 1.721l.904.795 6.141-7.035a.552.552 0 1 1 .833.723l-6.428 7.366a.552.552 0 0 1-.899-.624l-1.644 1.881-5.346 6.13c.01.006.016.017.027.022l.569.574h.005l11.504-10.786a2.673 2.673 0 1 1 3.597 3.956l-9.38 8.27-.005.011-1.986 2.273v.006c.01.005.02.013.027.022l.878.877 8.42-6.935a.552.552 0 0 1 .027-.695l6.422-7.366a.553.553 0 0 1 .833.728l-4.144 4.745 2.152-1.77a2.638 2.638 0 0 1 2.841-.32l1.198-1.375a2.443 2.443 0 0 0-.238-3.442l-7.36-6.428Z"></path>
  </symbol>
  <symbol viewBox="0 0 32 32" id="62">
    <g clip-path="url(#a)">
      <path d="M16.061 16.492c-.978 0-1.59.465-1.59 1.223s.612 1.235 1.59 1.235c.99 0 1.614-.477 1.614-1.235 0-.758-.623-1.223-1.614-1.223ZM16.061 15.135c.82 0 1.345-.403 1.345-1.051 0-.673-.538-1.076-1.345-1.076-.794 0-1.32.403-1.32 1.076 0 .648.513 1.051 1.32 1.051Z"></path>
      <path d="M16 9.516A6.492 6.492 0 0 0 9.516 16 6.492 6.492 0 0 0 16 22.485 6.492 6.492 0 0 0 22.484 16 6.492 6.492 0 0 0 16 9.516Zm.061 10.889c-2.164 0-3.594-1.015-3.594-2.629 0-.917.476-1.602 1.296-2.017-.636-.391-.99-.99-.99-1.76 0-1.505 1.344-2.446 3.288-2.446 1.968 0 3.313.941 3.313 2.445 0 .77-.366 1.37-1.002 1.76.831.416 1.308 1.101 1.308 2.018 0 1.614-1.443 2.629-3.619 2.629Z"></path>
      <path d="M27.314 4.686A15.895 15.895 0 0 0 16 0 15.896 15.896 0 0 0 4.686 4.686 15.896 15.896 0 0 0 0 16c0 4.274 1.664 8.292 4.686 11.314A15.895 15.895 0 0 0 16 32c4.274 0 8.292-1.664 11.314-4.686A15.895 15.895 0 0 0 32 16c0-4.274-1.664-8.292-4.686-11.314ZM16 24.36c-4.61 0-8.36-3.75-8.36-8.359 0-4.61 3.75-8.36 8.36-8.36 4.61 0 8.36 3.75 8.36 8.36 0 4.61-3.75 8.36-8.36 8.36Z"></path>
    </g>
    <defs>
      <clipPath id="a">
        <path d="M0 0h32v32H0z"></path>
      </clipPath>
    </defs>
  </symbol>
  <symbol viewBox="0 0 32 32" id="52">
    <path d="M16 21.958c-4.54 0-8.587 2.154-11.173 5.493A15.892 15.892 0 0 0 16 32c4.208 0 8.167-1.614 11.173-4.549-2.586-3.339-6.632-5.493-11.173-5.493ZM16 10.041c4.54 0 8.587-2.153 11.173-5.493A15.892 15.892 0 0 0 16 0 15.892 15.892 0 0 0 4.827 4.548C7.413 7.888 11.46 10.041 16 10.041Z"></path>
    <path d="M28.458 5.958c-.357.44-.738.866-1.144 1.272A15.896 15.896 0 0 1 16 11.916 15.896 15.896 0 0 1 4.686 7.23a16.305 16.305 0 0 1-1.144-1.272A15.879 15.879 0 0 0 0 16c0 3.699 1.248 7.206 3.542 10.041.357-.44.738-.865 1.144-1.272A15.895 15.895 0 0 1 16 20.083c4.274 0 8.292 1.665 11.314 4.686.406.407.787.832 1.144 1.272A15.878 15.878 0 0 0 32 16a15.88 15.88 0 0 0-3.542-10.042Z"></path>
  </symbol>
  <symbol viewBox="0 0 32 32" id="70">
    <g clip-path="url(#a)">
      <path d="M22.565 22.5a3.754 3.754 0 0 0-3.75 3.75c0 2.069 1.682 3.813 3.75 3.813s3.75-1.744 3.75-3.813a3.754 3.754 0 0 0-3.75-3.75ZM31.265 13.04c2.023-4.766-.3-10.27-5.066-12.292a9.375 9.375 0 0 0-12.293 4.966c-.523 1.233-.73 2.512-.715 3.77l15.76 6.69c.916-.863 1.79-1.9 2.314-3.133Z"></path>
      <path d="M13.464 11.637c.545 2.178 1.838 4.146 3.757 5.463l-3.005 7.078a1.875 1.875 0 0 0 3.452 1.465l3.005-7.077c2.28.465 4.595.028 6.54-1.093l-13.749-5.836Z"></path>
      <path d="M9.44 32c1.036 0 1.875-.84 1.875-1.875v-7.814c.693-.14 1.342-.381 1.967-.667l1.228-2.893H1.91a9.498 9.498 0 0 0 5.655 3.56v7.814c0 1.036.84 1.876 1.875 1.876ZM12.548 4.32c-.977-.346-2.012-.57-3.108-.57-5.177 0-9.437 4.198-9.437 9.375 0 1.34.308 2.598.814 3.75h13.401c-2.853-3.185-3.74-7.819-2.011-11.892.098-.232.23-.441.341-.664Z"></path>
    </g>
    <defs>
      <clipPath id="a">
        <path d="M0 0h32v32H0z"></path>
      </clipPath>
    </defs>
  </symbol>
  <symbol viewBox="0 0 32 32" id="54">
    <g clip-path="url(#a)">
      <path d="M1.817 14.002c2.494 4.135 5.34 6.906 8.458 8.237 3.11 1.327 5.523.8 6.684.367.082-.031.14-.05.18-.065-.126-2.774-1.098-4.716-1.616-5.563a9.686 9.686 0 0 1-.321.005c-2.29 0-8.412-.742-13.039-8.01a.934.934 0 0 1-.024-.04l-.263-.462a15.799 15.799 0 0 0-1.34 3.407l1.269 2.104.012.02Z"></path>
      <path d="m29.015 7.538.554-.02a16.127 16.127 0 0 0-2.255-2.825l-.044-.043-2.43.075h-.01c-10.228.195-14.493 4.951-15.054 9 2.463 1.275 4.627 1.405 5.62 1.382l.006-.01c.898-1.675 4.533-7.166 13.606-7.559h.007Z"></path>
      <path d="M24.207 17.462c-.505-3.252-2.205-4.987-3.117-5.703-2.355 1.51-3.55 3.333-4.009 4.174 1.044 1.678 3.936 7.533-.247 15.564l-.252.497a16.053 16.053 0 0 0 3.463-.502l1.315-2.209c2.391-4.333 3.376-8.42 2.847-11.821Z"></path>
      <path d="m15.164 30.645.005-.01c1.173-2.25 1.73-4.299 1.913-6.093-.732.22-1.714.417-2.892.417-1.328 0-2.904-.25-4.651-.995-3.484-1.487-6.62-4.508-9.319-8.979a1.107 1.107 0 0 1-.012-.02l-.155-.257c-.035.43-.053.863-.053 1.298 0 4.274 1.664 8.292 4.686 11.314a15.878 15.878 0 0 0 9.824 4.617l.654-1.292ZM29.086 9.411c-2.533.11-4.584.654-6.23 1.394 1.66 1.558 2.808 3.818 3.204 6.368.281 1.81.199 3.769-.245 5.824-.495 2.288-1.444 4.713-2.82 7.206l-.169.282a16.014 16.014 0 0 0 4.488-3.166A15.895 15.895 0 0 0 32 16.006c0-2.332-.497-4.588-1.438-6.648l-1.476.053ZM3.757 7.986c1.36 2.132 2.852 3.633 4.31 4.686.535-2.274 1.979-4.451 4.062-6.08 3.045-2.38 7.304-3.639 12.66-3.742l.31-.009A15.883 15.883 0 0 0 16 .006 15.895 15.895 0 0 0 4.686 4.692a16.212 16.212 0 0 0-1.68 1.973l.751 1.32Z"></path>
    </g>
    <defs>
      <clipPath id="a">
        <path d="M0 0h32v32H0z"></path>
      </clipPath>
    </defs>
  </symbol>
  <symbol viewBox="0 0 32 32" id="specials">
    <path d="M16 5.499a6.615 6.615 0 0 0-6.607 6.607A6.615 6.615 0 0 0 16 18.713a6.615 6.615 0 0 0 6.607-6.607A6.615 6.615 0 0 0 16 5.5Zm4.31 6.174-1.178 1.765-.013 1.871a.938.938 0 0 1-1.191.896l-2.042-.575s-1.498.528-1.784.566c-.286.038-.663-.014-.822-.126a.938.938 0 0 1-.399-.73l-.084-2.12-1.09-1.522a.937.937 0 0 1 .438-1.425l1.99-.735 1.11-1.507a.938.938 0 0 1 1.491-.024l1.314 1.666 1.776.59a.937.937 0 0 1 .484 1.41Z"></path>
    <path d="M19.884 21.87c.425-.176.993-.204 1.593-.233 1.028-.05 2.193-.107 3.073-.96.86-.834.889-1.958.915-2.95.015-.558.029-1.085.185-1.463.177-.425.558-.846.962-1.292.692-.762 1.475-1.626 1.494-2.851.018-1.197-.756-2.013-1.439-2.733-.384-.405-.747-.787-.903-1.166-.176-.425-.204-.992-.233-1.593-.05-1.028-.108-2.193-.96-3.073-.834-.859-1.958-.889-2.95-.915-.558-.014-1.085-.028-1.463-.185-.425-.176-.846-.558-1.292-.962C18.104.803 17.24.019 16.015 0h-.043c-1.174 0-1.979.764-2.69 1.439-.405.384-.788.747-1.166.903-.425.176-.993.204-1.593.234-1.028.05-2.193.107-3.073.96-.86.833-.889 1.957-.915 2.949-.015.558-.029 1.085-.185 1.463-.176.426-.558.846-.962 1.292-.691.762-1.475 1.626-1.494 2.852-.018 1.197.756 2.012 1.438 2.732.385.405.748.788.904 1.166.176.425.204.993.233 1.594.05 1.027.108 2.192.96 3.072.834.86 1.958.89 2.95.915.558.015 1.085.029 1.463.185.425.177.846.558 1.292.962.762.692 1.626 1.475 2.851 1.494h.043c1.174 0 1.979-.764 2.69-1.438.405-.384.788-.747 1.166-.904ZM16 20.588c-4.677 0-8.482-3.805-8.482-8.482S11.323 3.624 16 3.624s8.482 3.805 8.482 8.482-3.805 8.482-8.482 8.482Z"></path>
    <path d="m16.752 11.055-.727-.921-.547.743a.938.938 0 0 1-.43.323l-1.1.407.537.75a.936.936 0 0 1 .175.509l.046 1.172s.922-.313 1.164-.324c.185-.008 1.383.354 1.383.354l.006-.923a.937.937 0 0 1 .158-.515l.651-.975-.876-.291a.937.937 0 0 1-.44-.31ZM29.359 26.79l-3.049-5.28a4.567 4.567 0 0 1-.455.513c-1.387 1.345-3.132 1.43-4.286 1.486-.313.016-.78.038-.953.089-.13.084-.416.354-.607.536-.535.507-1.249 1.184-2.214 1.593l3.351 5.804a.938.938 0 0 0 1.514.153l2.453-2.766 3.622-.741a.937.937 0 0 0 .624-1.387ZM11.139 23.496c-.153-.034-.546-.044-.81-.05-1.147-.031-2.88-.077-4.246-1.485a4.739 4.739 0 0 1-.39-.458l-3.052 5.286a.937.937 0 0 0 .624 1.388l3.622.74 2.453 2.767a.937.937 0 0 0 1.514-.153l3.353-5.808c-1.008-.415-1.766-1.102-2.333-1.616-.232-.21-.578-.525-.736-.611Z"></path>
  </symbol>
  <symbol viewBox="0 0 32 32" id="alpine skiing">
    <g clip-path="url(#a)">
      <path d="M30.704 4.091c-1.005-1.752-2.232-2.757-3.367-2.758a.666.666 0 0 0-.26.053c-.607.125-1.074.638-1.074 1.28v4c0 .488.276.897.667 1.13V26.74c-.798.172-1.333.647-1.333 1.26 0 .614.535 1.088 1.333 1.26v2.073c0 .369.298.667.667.667a.663.663 0 0 0 .663-.667V29.26c.799-.172 1.337-.646 1.337-1.26 0-.613-.538-1.088-1.337-1.26V9.875c.538.514 1.207.786 1.992.792h.018c.728 0 1.314-.32 1.654-.902.795-1.362.06-3.896-.96-5.674Zm-.192 5.002c-.072.126-.182.253-.51.24-.46-.003-.828-.152-1.125-.457-.31-.317-.51-.773-.643-1.236a1.32 1.32 0 0 0 .436-.973V3.515c.298.334.598.753.878 1.24.955 1.666 1.389 3.612.965 4.338ZM5.33 26.74V7.795c.391-.232.667-.641.667-1.128v-4c0-.643-.467-1.156-1.074-1.28a.665.665 0 0 0-.26-.054C3.528 1.334 2.3 2.34 1.296 4.091.276 5.87-.459 8.402.336 9.764c.34.583.926.903 1.654.903h.018c.785-.006 1.454-.278 1.992-.792V26.74c-.799.172-1.337.647-1.337 1.26 0 .614.538 1.088 1.337 1.26v2.073c0 .369.295.667.663.667a.666.666 0 0 0 .667-.667V29.26c.799-.172 1.333-.646 1.333-1.26 0-.613-.534-1.088-1.333-1.26ZM3.123 8.876c-.297.304-.665.454-1.125.457h-.01c-.316 0-.428-.115-.5-.24-.425-.726.009-2.672.964-4.338.28-.487.58-.906.878-1.24v3.152c0 .387.172.729.436.973-.133.463-.333.919-.643 1.236ZM21.535 21.06c-.846-1.762-1.452-3.07-1.8-3.89v-.002a63.056 63.056 0 0 1-.549-1.326c-.253-.628-.536-1.344-.833-2.106 1.7-3.634 3.72-7.833 4.703-9.867.324-.672.36-1.454.099-2.146a2.633 2.633 0 0 0-1.448-1.51h-.001a2.635 2.635 0 0 0-2.097.01 2.705 2.705 0 0 0-1.474 1.56c-.48 1.297-1.275 3.438-2.148 5.76-.875-2.325-1.67-4.466-2.15-5.76a2.706 2.706 0 0 0-1.474-1.56 2.635 2.635 0 0 0-2.096-.01h-.002a2.635 2.635 0 0 0-1.447 1.512 2.737 2.737 0 0 0 .099 2.144c.984 2.038 3.008 6.241 4.703 9.866-.298.764-.581 1.48-.834 2.105v.003c-.202.499-.387.95-.547 1.328-.352.825-.958 2.133-1.8 3.886l-.003.003a513.647 513.647 0 0 1-3.484 7.084 2.695 2.695 0 0 0-.121 2.132A2.639 2.639 0 0 0 9.3 32c.36 0 .722-.076 1.064-.227a2.703 2.703 0 0 0 1.452-1.567 539.7 539.7 0 0 1 2.696-7.446v-.001c.639-1.712 1.13-2.978 1.474-3.8.347.827.838 2.092 1.474 3.799a557.691 557.691 0 0 1 2.697 7.45c.248.698.777 1.27 1.451 1.565.342.151.704.227 1.065.227a2.64 2.64 0 0 0 2.47-1.725c.254-.69.21-1.467-.122-2.13a543.87 543.87 0 0 1-3.486-7.085Zm-6.706-2.791c-.31.73-.755 1.864-1.324 3.377l-1.527-.63-.035-.014a93.525 93.525 0 0 0 1.523-3.31c.092-.217.193-.457.298-.716l1.367.597c-.11.25-.212.484-.302.696Zm5.165 2.748-1.527.63a90.76 90.76 0 0 0-1.324-3.379l-.3-.695 1.365-.597c.107.26.207.5.3.717a91 91 0 0 0 1.522 3.309l-.036.015Z"></path>
    </g>
    <defs>
      <clipPath id="a">
        <path d="M0 0h32v32H0z"></path>
      </clipPath>
    </defs>
  </symbol>
  <symbol viewBox="0 0 32 32" id="50">
    <path d="M16 0C7.178 0 0 7.178 0 16s7.178 16 16 16 16-7.178 16-16S24.822 0 16 0Zm1.016 5.198 4.114-2.212a14.066 14.066 0 0 1 5.778 4.26l-.98 4.524-3.138 1.538-5.774-4.206V5.198Zm-6.112-2.224 4.114 2.22v3.908l-5.77 4.206-3.154-1.54-.98-4.552a14.046 14.046 0 0 1 5.79-4.242ZM4.46 23.908a13.908 13.908 0 0 1-2.39-6.548l3.386-3.678 3.088 1.51 2.326 6.606-1.966 2.356-4.444-.246Zm15.106 5.614A13.907 13.907 0 0 1 16 30a13.95 13.95 0 0 1-4.278-.674l-1.258-3.916L12.47 23h7.068l1.97 2.332-1.942 4.19Zm3.502-5.436-1.934-2.29 2.358-6.604 3.074-1.506 3.366 3.676a13.868 13.868 0 0 1-1.89 5.742l-4.974.982Z"></path>
  </symbol>
  <symbol viewBox="0 0 32 32" id="63">
    <g clip-path="url(#a)">
      <path d="m31.188 17.627-.281-.843-6.312 1.73-.803-1.405 1.42-5.36-.088-.266a12.832 12.832 0 0 0-4.616-6.343 12.787 12.787 0 0 0-7.621-2.494 12.799 12.799 0 0 0-9.11 3.782A12.799 12.799 0 0 0 0 15.541a12.775 12.775 0 0 0 2.495 7.614l1.207 3.216H6.14l3.11 1.866a6.149 6.149 0 0 0 7.524-.926l.026-.028a5.86 5.86 0 0 0 .777-1.061l6.967 2.836.407.102a6.516 6.516 0 0 0 5.184-.898l.122-.08.09-.114c.125-.156 3.025-3.888.84-10.441Zm-20.083 7.187a2.751 2.751 0 0 1-2.748-2.748 2.751 2.751 0 0 1 2.748-2.748 2.751 2.751 0 0 1 2.748 2.748 2.751 2.751 0 0 1-2.748 2.748Zm5.264-6.473-.748-1.219 1.049-3.146 6.287-1.037-1.174 4.433.945 1.654-1.986.545-4.373-1.23Zm6.973 8.204-5.103-2.078a5.94 5.94 0 0 0-.468-3.784l2.965.834 2.953-.81.825 1.444-1.172 4.394Zm6.503-1.88c-.284 1.138-.714 1.864-.888 2.127a4.638 4.638 0 0 1-3.55.55l-.28-.07-.034-.014 1.43-5.369-.967-1.694 4.11-1.127c.546 2.009.607 3.888.179 5.598Z"></path>
      <path d="M11.105 21.193a.874.874 0 0 0 0 1.747.874.874 0 0 0 0-1.747Z"></path>
    </g>
    <defs>
      <clipPath id="a">
        <path d="M0 0h32v32H0z"></path>
      </clipPath>
    </defs>
  </symbol>
  <symbol viewBox="0 0 32 32" id="athletics">
    <path d="M2.075 18.908C.93 18.908 0 19.838 0 20.982v8.103c0 1.144.93 2.074 2.075 2.074h6.089V18.908h-6.09ZM29.925 22.648h-6.089v8.51h6.09c1.143 0 2.074-.93 2.074-2.074v-4.362c0-1.143-.93-2.074-2.075-2.074ZM19.884 14.21h-7.768c-1.144 0-2.075.93-2.075 2.075v14.874h11.918V16.285c0-1.145-.93-2.075-2.075-2.075Zm-3.696 9.671a.939.939 0 0 1-.939-.938v-1.907l-.009.007a.937.937 0 1 1-1.127-1.502l1.511-1.133.018-.012a.9.9 0 0 1 .38-.16.974.974 0 0 1 .145-.014l.02-.001h.02a1.085 1.085 0 0 1 .227.033.98.98 0 0 1 .049.015l.038.014.046.018a.903.903 0 0 1 .04.02c.014.006.027.012.04.02l.043.026.033.021c.014.01.028.02.042.032l.03.024a.9.9 0 0 1 .131.137l.013.015c.004.006.007.012.012.017a1.005 1.005 0 0 1 .127.25.793.793 0 0 1 .033.131.867.867 0 0 1 .014.144l.001.021v3.784c0 .518-.42.938-.938.938ZM21.242 4.65a1.083 1.083 0 0 0-.88-.742l-2.339-.34-1.046-2.12A1.083 1.083 0 0 0 16 .842c-.418 0-.792.233-.977.608l-1.046 2.12-2.34.339c-.413.06-.75.344-.879.742-.129.397-.023.825.276 1.117l1.692 1.65-.4 2.33c-.07.411.096.82.434 1.065.338.246.778.277 1.148.083L16 9.795l2.092 1.1a1.086 1.086 0 0 0 1.148-.083c.338-.246.504-.654.433-1.066l-.4-2.33 1.694-1.65c.298-.29.404-.719.275-1.116Z"></path>
  </symbol>
  <symbol viewBox="0 0 32 32" id="71">
    <g clip-path="url(#a)">
      <path d="M11.499 31.429c4.177-1.14 8.556-3.846 12.332-7.622 3.776-3.775 6.483-8.155 7.622-12.332 1.107-4.06.593-7.418-1.447-9.458-.59-.591-2.514-.465-6.138 1.665a33.5 33.5 0 0 0-1.119.687l.568.568a.602.602 0 0 1-.85.851l-.742-.74c-.512.35-1.031.721-1.56 1.114l.66.66a.601.601 0 1 1-.85.85L19.2 6.9c-.49.382-.984.78-1.482 1.193l.675.675a.602.602 0 1 1-.85.85l-.747-.745c-.45.388-.902.787-1.355 1.198l.703.702a.601.601 0 1 1-.851.851l-.738-.737c-.455.427-.91.863-1.364 1.31l.704.704a.602.602 0 1 1-.851.85l-.706-.704c-.426.432-.844.865-1.253 1.3l.743.742a.602.602 0 0 1-.85.851l-.712-.711a71.56 71.56 0 0 0-1.26 1.415l.756.755a.602.602 0 0 1-.851.851l-.686-.686c-.414.496-.813.988-1.197 1.478l.789.788a.603.603 0 0 1-.851.851l-.677-.676c-.375.5-.732.994-1.07 1.482l.835.835a.602.602 0 0 1-.851.851l-.668-.668c-.296.455-.573.902-.83 1.34-2.13 3.624-2.256 5.547-1.665 6.138C3.377 31.318 5.279 32 7.573 32c1.208 0 2.525-.19 3.926-.571Z"></path>
      <path d="M2.668 23.234c.306-.52.64-1.054 1-1.6l-.834-.833a.602.602 0 0 1 .851-.85l.671.67c.34-.486.7-.979 1.076-1.477l-.835-.835a.601.601 0 1 1 .851-.85l.725.724c.385-.488.785-.98 1.2-1.475l-.892-.89a.602.602 0 0 1 .851-.852l.824.824c.408-.47.828-.942 1.26-1.414l-.807-.808a.601.601 0 1 1 .85-.85l.777.776c.41-.434.827-.868 1.253-1.3l-.814-.814a.601.601 0 1 1 .851-.85l.816.814c.453-.445.907-.882 1.364-1.31l-.782-.781a.602.602 0 0 1 .85-.851l.817.816c.452-.41.903-.81 1.354-1.2l-.833-.832a.602.602 0 0 1 .851-.85l.903.902a63.4 63.4 0 0 1 1.478-1.196l-.739-.74a.601.601 0 1 1 .85-.85l.853.852a49.754 49.754 0 0 1 1.553-1.12l-.764-.765a.602.602 0 0 1 .85-.851l.933.932c.468-.305.928-.59 1.38-.856C24.715 1.79 26.426.946 27.926.636c-1.957-.82-4.49-.853-7.378-.066-4.177 1.14-8.556 3.847-12.332 7.622C4.44 11.968 1.734 16.348.595 20.524c-.787 2.889-.754 5.421.065 7.378.31-1.5 1.153-3.212 2.008-4.668Z"></path>
    </g>
    <defs>
      <clipPath id="a">
        <path d="M0 0h32v32H0z"></path>
      </clipPath>
    </defs>
  </symbol>
  <symbol viewBox="0 0 32 32" id="78">
    <g clip-path="url(#a)">
      <path d="m31.217 14.417-4.726-1.058-13.937 10.71-1.426-1.426 14.293-10.982-.428-3.774a.995.995 0 0 0-.88-.88l-4.035-.458-10.74 14.306-1.426-1.428L18.764 4.97l-.46-4.082a.988.988 0 0 0-.394-.688c-.22-.164-.5-.232-.772-.184l-5.656 1a1.001 1.001 0 0 0-.776.666L5.124 18.387 3.462 20.05l8.484 8.484 1.66-1.66 16.707-5.582a1 1 0 0 0 .664-.752l1-4.948a.998.998 0 0 0-.76-1.174ZM2.048 21.465l-.292.292a6.008 6.008 0 0 0 0 8.485A5.956 5.956 0 0 0 5.998 32c1.602 0 3.11-.626 4.242-1.758l.292-.292-8.484-8.485Z"></path>
    </g>
    <defs>
      <clipPath id="a">
        <path d="M0 0h32v32H0z"></path>
      </clipPath>
    </defs>
  </symbol>
  <symbol viewBox="0 0 32 32" id="56">
    <path d="M26.85 5.75c-.268.213-.525.44-.77.68A12.54 12.54 0 0 0 23.27 10a1 1 0 0 1 0 2h-.87c-.318.972-.516 1.98-.59 3h.45a1 1 0 0 1 0 2h-.45c.076 1.02.274 2.027.59 3h.86a1 1 0 0 1 0 2 13.202 13.202 0 0 0 2.79 3.62c.26.24.53.46.8.68A15 15 0 0 0 31 16a14.67 14.67 0 0 0-4.15-10.25ZM8.74 10A12.52 12.52 0 0 0 6 6.46c-.26-.25-.53-.48-.81-.71A14.72 14.72 0 0 0 1 16a15 15 0 0 0 4.15 10.3c.271-.21.532-.433.78-.67A13 13 0 0 0 8.74 22a1 1 0 0 1 0-2h.86c.316-.973.514-1.98.59-3h-.44a1 1 0 0 1 0-2h.44a12.561 12.561 0 0 0-.59-3h-.86a1 1 0 0 1 0-2Z"></path>
    <path d="M24.69 27.09A14.94 14.94 0 0 1 21 22h-.77a1 1 0 1 1 0-2h.07a15.188 15.188 0 0 1-.52-3h-.55a1 1 0 1 1 0-2h.55c.072-1.015.246-2.02.52-3h-.07a1 1 0 1 1 0-2H21a14.52 14.52 0 0 1 3.69-5c.21-.21.44-.39.66-.58A14.41 14.41 0 0 0 16 1a14.36 14.36 0 0 0-9.38 3.38l.7.61A14.46 14.46 0 0 1 11 10h.77a1 1 0 1 1 0 2h-.07c.279.979.453 1.985.52 3h.56a1 1 0 1 1 0 2h-.56a15.203 15.203 0 0 1-.52 3h.07a1 1 0 1 1 0 2H11a14.902 14.902 0 0 1-3.68 5.1c-.21.2-.44.39-.67.57A14.61 14.61 0 0 0 16 31a14.62 14.62 0 0 0 9.38-3.33c-.23-.19-.47-.37-.69-.58Z"></path>
  </symbol>
  <symbol version="1.1" x="0px" y="0px" enable-background="new 0 0 1000 1000" xml:space="preserve" viewBox="0 0 1000 1000" id="82">
    <g>
      <g transform="translate(0.000000,28.000000) scale(0.100000,-0.100000)">
        <path d="M2589.5-484.1c-3319.3-2012.7-3319.3-6461.7,0-8474.4c2259.8-1377.2,5155.3-564.8,6638,1836.2C11734.7-2991.2,6720.6,2022.9,2589.5-484.1z M4531.5-2143.8c-106-105.9-459.1-105.9-741.5-35.2c-529.6,105.9-529.6,211.7,35.3,988.6l635.5,882.8l105.9-812.1C4637.4-1578.8,4602-2037.7,4531.5-2143.8z M6402.7-1578.8c317.9-565,247.6-670.9-353.1-670.9c-529.6,0-706,247.2-706,918.1C5343.6-378.3,5837.9-448.8,6402.7-1578.8z M2871.9-1543.4c0-176.6-176.5-353.1-388.4-353.1c-176.6,0-247.1,176.6-141.2,353.1c105.9,211.9,282.4,353.1,388.4,353.1C2801.2-1190.3,2871.9-1331.5,2871.9-1543.4z M7638.6-1543.4c106.2-176.6,35.5-353.1-141-353.1c-212.1,0-388.6,176.6-388.6,353.1c0,211.9,71,353.1,141.4,353.1C7356.5-1190.3,7533-1331.5,7638.6-1543.4z M2236.4-3520.8c-106-529.6-388.4-847.4-812.2-847.4c-776.7,0-776.7,0-317.8,1200.5C1530.2-2002.4,2483.4-2285,2236.4-3520.8z M9051-3556.2c176.5-670.9,71-812.1-494.1-812.1c-529.6,0-741.7,211.9-741.7,812.1C7815.1-1967.2,8556.8-2002.4,9051-3556.2z M4637.4-3662c0-529.7-247.2-706.2-882.7-706.2s-882.8,176.5-882.8,706.2c0,529.6,247.2,706.2,882.8,706.2S4637.4-3132.4,4637.4-3662z M7108.9-3662c0-529.7-246.9-706.2-882.7-706.2c-635.2,0-882.6,176.5-882.6,706.2c0,529.6,247.4,706.2,882.6,706.2C6862-2955.8,7108.9-3132.4,7108.9-3662z M2236.4-5922c247.1-1235.8-706.2-1518.3-1130-353.1c-459,1200.7-459,1200.7,317.8,1200.7C1847.9-5074.5,2130.3-5392.4,2236.4-5922z M4637.4-5780.7c0-529.6-247.2-706.2-882.7-706.2s-882.8,176.6-882.8,706.2s247.2,706.2,882.8,706.2S4637.4-5251,4637.4-5780.7z M7108.9-5780.7c0-529.6-246.9-706.2-882.7-706.2c-635.2,0-882.6,176.6-882.6,706.2s247.4,706.2,882.6,706.2C6862-5074.5,7108.9-5251,7108.9-5780.7z M9227.5-5215.8c0-105.9-141-600-353.1-1094.5C8451-7404.8,7815.1-7157.9,7815.1-5922c0,600.3,176.6,847.6,706.2,847.6C8909.9-5074.5,9227.5-5145.1,9227.5-5215.8z M4637.4-8111c0-953.4-494.3-882.8-1059.3,246.9c-317.8,565.2-247.2,671,353.1,671C4460.8-7193.1,4637.4-7440.3,4637.4-8111z M6402.7-7864.1C5837.9-8993.7,5343.6-9064.4,5343.6-8111c0,670.7,176.4,917.9,706,917.9C6650.3-7193.1,6720.6-7298.9,6402.7-7864.1z M2871.9-7899.3c0-176.6-70.7-353.1-141.2-353.1c-106,0-282.6,176.6-388.4,353.1c-105.9,211.7-35.3,353.1,141.2,353.1C2695.3-7546.2,2871.9-7687.5,2871.9-7899.3z M7815.1-7687.5c0-105.9-141-282.4-353.1-388.3c-176.6-105.9-353.1-35.2-353.1,141.4c0,211.7,176.6,388.3,353.1,388.3C7674.1-7546.2,7815.1-7616.8,7815.1-7687.5z"></path>
      </g>
    </g>
  </symbol>
  <symbol version="1.1" x="0px" y="0px" enable-background="new 0 0 1000 1000" xml:space="preserve" viewBox="0 0 1000 1000" id="93">
    <g>
      <g transform="translate(0.000000,511.000000) scale(0.100000,-0.100000)">
        <path d="M7206.3,4985.1c-149.8-35-264.6-99.2-363.8-198.4c-250.9-251-328.8-642-221.8-1112.8c27.2-114.8,58.4-301.5,72-418.3l25.3-208.2l719.8,3.9l721.7,5.8l5.8,87.5c7.8,126.4,58.4,476.6,91.4,622.5c37,167.3,37,441.6-1.9,589.4c-89.5,344.3-322.9,575.8-638.1,634.2C7470.9,5018.2,7330.8,5016.2,7206.3,4985.1z"></path>
        <path d="M6723.9,2401.6c-7.8-175.1-19.5-357.9-25.3-408.5l-13.6-93.4H7430h745.1l-13.6,93.4c-7.8,50.6-17.5,233.4-25.3,408.5l-11.7,315.2H7430h-694.5L6723.9,2401.6z"></path>
        <path d="M6576,1419.2c-64.2-223.7-175.1-503.8-334.6-842.3c-75.9-165.4-142-305.4-145.9-309.3c-3.9-3.9-89.5,72-190.6,167.3C4819.3,1473.7,3095.7,1522.3,1922.7,545.8C1136.7-109.8,730.1-1142.9,862.4-2146.7c89.5-667.3,354.1-1219.7,817.1-1708c1011.6-1060.2,2630.2-1239.2,3853.8-426c64.2,42.8,194.5,144,289.9,223.7c122.6,103.1,177,138.1,184.8,118.7c27.2-85.6,190.6-375.5,274.3-488.3c52.5-73.9,149.8-171.2,215.9-219.8c194.5-144,229.6-147.8,974.6-142l647.8,5.8l107,52.5c225.7,110.9,431.9,394.9,601.1,830.7c171.2,443.5,268.5,859.8,313.2,1344.2c31.1,346.3,25.3,1202.2-9.7,1472.7c-72,548.6-280.2,1184.7-620.6,1892.9c-48.6,101.2-130.3,313.2-180.9,470.8l-93.4,287.9h-809.3h-809.3L6576,1419.2z M3811.6,728.6c89.5-25.3,252.9-136.2,305.4-206.2c182.9-247.1,188.7-564.2,17.5-803.5c-73.9-101.1-215.9-202.3-330.7-235.4c-116.7-33.1-299.6-29.2-416.3,11.7c-136.2,46.7-297.7,194.5-367.7,338.5c-46.7,95.3-54.5,134.2-54.5,276.3c1.9,196.5,40.9,301.5,167.3,437.7C3307.8,738.3,3552.9,802.5,3811.6,728.6z M2731.9-442.5c416.3-190.6,517.5-729.5,198.4-1050.5c-330.7-330.7-861.8-231.5-1060.2,200.4c-105.1,225.7-50.6,523.3,128.4,708.1c77.8,81.7,214,159.5,328.8,188.7C2436.2-368.6,2617.2-390,2731.9-442.5z M4278.5-738.2c184.8-54.5,319-167.3,412.4-344.3c37-68.1,44.7-112.8,44.7-276.3c0-223.7-35-321-165.4-455.2c-120.6-122.5-254.8-182.9-437.7-192.6c-200.4-9.7-336.5,37-474.7,167.3c-258.7,243.2-280.1,638.1-50.6,894.9C3796.1-734.3,4027.6-662.3,4278.5-738.2z"></path>
      </g>
    </g>
  </symbol>
  <symbol id="66" viewBox="0 0 104.38 122.88">
    <path d="M35.73,32.57a20.45,20.45,0,1,1,32.91,0Zm35.06,3.88a7.1,7.1,0,0,1,6.17,7h0a7.11,7.11,0,0,1-6.61,7.06H34a7.1,7.1,0,0,1-6.6-7.06h0a7.1,7.1,0,0,1,6.17-7ZM63.33,54.4c.91,14.57,6,26.07,18.75,31.85V91.6H22.3V86.25c12-3.8,17.68-15,18.73-31.85ZM82.39,95.45a14.39,14.39,0,0,1,12.67,14.23v.22H9.32v-.22A14.39,14.39,0,0,1,22,95.45l.31,0H82.08l.31,0ZM94.9,113.77a12,12,0,0,1,9.48,9.11H0a12,12,0,0,1,9.47-9.11Z"></path>
  </symbol>
    <symbol id="64" xmlns="http://www.w3.org/2000/svg" viewBox="0 0 98.76 75.76">
    <defs></defs>
    <path id="Shape" d="M50.27,50.27a32.78,32.78,0,0,0,3,7.95,61.31,61.31,0,0,0,28.55-20,31.53,31.53,0,0,0-.06-11.13C73.19,41.39,56.31,48.22,50.27,50.27Z"></path>
    <path id="Shape-2" d="M50,32.79a30.64,30.64,0,0,0,11.51-4.22C49.2,11.54,24.81,14.35,22,14.75a32.86,32.86,0,0,0-3.49,7,33.47,33.47,0,0,1,4.58-.32A38.53,38.53,0,0,1,50,32.79Z"></path>
    <path id="Shape-3" d="M50.7,36c-1.23,4.56-1.68,5.84-1,11,6.53-2.28,23.83-9.57,30.88-24.61a33,33,0,0,0-3.33-7A35.34,35.34,0,0,1,50.7,36Z"></path>
    <path id="Shape-4" d="M73.16,16.13A36.35,36.35,0,0,0,75,12.23,32.71,32.71,0,0,0,41.92.89,45.1,45.1,0,0,1,73.16,16.13Z"></path>
    <path id="Shape-5" d="M64.19,26.69a33.53,33.53,0,0,0,7.18-7.62A42.94,42.94,0,0,0,33,4.39a33.17,33.17,0,0,0-8.26,6.75C33,10.56,52.91,10.94,64.19,26.69Z"></path>
    <path id="Shape-6" d="M22.35,24.7a33.58,33.58,0,0,0-4.91.46,32.53,32.53,0,0,0,4.37,25.67C19.34,38.53,20.72,29.84,22.35,24.7Z"></path>
    <path id="Shape-7" d="M96,71.27a4.87,4.87,0,0,1-6.45,0,8.23,8.23,0,0,0-10.9,0,4.87,4.87,0,0,1-6.45,0,8.22,8.22,0,0,0-10.89,0,4.88,4.88,0,0,1-6.46,0,8.22,8.22,0,0,0-10.89,0,4.87,4.87,0,0,1-6.45,0,8.23,8.23,0,0,0-10.9,0,4.87,4.87,0,0,1-6.45,0,8.23,8.23,0,0,0-10.9,0,4.87,4.87,0,0,1-6.45,0A1.64,1.64,0,0,0,0,72.12,1.63,1.63,0,0,0,.56,73.7a8.23,8.23,0,0,0,10.9,0,4.87,4.87,0,0,1,6.45,0,8.23,8.23,0,0,0,10.9,0,4.87,4.87,0,0,1,6.45,0,8.22,8.22,0,0,0,10.89,0,4.88,4.88,0,0,1,6.46,0,8.22,8.22,0,0,0,10.89,0,4.88,4.88,0,0,1,6.46,0,8.22,8.22,0,0,0,10.89,0,4.87,4.87,0,0,1,6.45,0,8.23,8.23,0,0,0,10.9,0,1.67,1.67,0,0,0,.52-1.58A1.65,1.65,0,0,0,96,71.27Z"></path>
    <path id="Shape-8" d="M98.21,63.74a8.24,8.24,0,0,1-10.89,0,4.88,4.88,0,0,0-6.46,0,8.25,8.25,0,0,1-10.9,0,4.85,4.85,0,0,0-6.44,0,8.27,8.27,0,0,1-10.91,0,4.87,4.87,0,0,0-6.45,0,8.24,8.24,0,0,1-10.89,0,4.87,4.87,0,0,0-6.45,0,8.27,8.27,0,0,1-10.91,0,4.87,4.87,0,0,0-6.45,0,8.24,8.24,0,0,1-10.89,0A1.68,1.68,0,0,1,0,62.6a1.66,1.66,0,0,1,2.76-1.3,4.87,4.87,0,0,0,6.45,0,8.22,8.22,0,0,1,10.89,0,4.87,4.87,0,0,0,6.45,0,8,8,0,0,1,3.47-1.79,37.41,37.41,0,0,1-3.44-2.85c-4.62-16-2.71-26.49-.83-31.85A34.54,34.54,0,0,1,35,26.92a59.13,59.13,0,0,0,2.53,34.43,4.82,4.82,0,0,0,4,1.1,56.15,56.15,0,0,1-3.49-34.2A34,34,0,0,1,47.56,35a26,26,0,0,0-.84,14.44,36.11,36.11,0,0,0,3.4,9.84,8,8,0,0,1,4.61,1.91,64.49,64.49,0,0,0,25-15.78A33,33,0,0,1,68.71,59.51a8.1,8.1,0,0,1,3.48,1.79,4.85,4.85,0,0,0,6.44,0,8.23,8.23,0,0,1,10.9,0,4.85,4.85,0,0,0,6.44,0,1.66,1.66,0,0,1,2.24,2.44Z"></path>
  </symbol>
  <symbol version="1.1" id="128" xmlns="http://www.w3.org/2000/svg" xmlns:xlink="http://www.w3.org/1999/xlink" x="0px" y="0px" xml:space="preserve" viewBox="0 0 100 44.8">
    <g id="Layer_2_00000141416058004988716040000002522348444379354786_">
      <g id="Layer_1-2">
        <g id="Layer_1-3">
          <path d="M73.2,21.3c5.2,0.6,9.9-3.1,10.5-8.3s-3.1-9.9-8.3-10.5c-5.2-0.6-9.9,3.1-10.5,8.3c0,0,0,0,0,0.1
				c-0.6,5.1,3,9.8,8.1,10.4C73,21.3,73.1,21.3,73.2,21.3z"></path>
          <path d="M32,13.7l14-2.8l3.1,4.9l-11,10.4c1.7,0.4,3.3,1.1,4.9,1.9l2.1,1.3c0.9,0.7,1.9,1.2,3,1.6
				c0.6,0.2,1.2,0.3,1.8,0.4c1.4,0,2.7-0.4,3.9-1.2c3.7-2.6,8-4.2,12.5-4.5h1.1c1.5,0,3.1,0.1,4.6,0.4C70.7,24.3,52.5,2.4,52.5,2.4
				L52,1.8c-1.1-1.5-3.1-2.1-4.9-1.6l-17,6.2c-1.7,0.6-2.7,2.4-2.3,4.1c0.2,2,2,3.4,4,3.1C31.9,13.7,32,13.7,32,13.7z"></path>
          <path d="M94.2,35.5c-2.2,1-4.5,1.7-7,1.5c-3.3-0.2-6.1-1.6-8.5-3.8c-1.1-1-2.3-1.9-3.7-2.6c-2.6-1.3-5.4-1.9-8.3-1.9
				h-0.9c-3.8,0.3-7.5,1.7-10.6,4c-1.6,1-3.4,1.5-5.3,1.6c-0.8,0-1.7-0.1-2.5-0.4c-1.4-0.5-2.7-1.2-3.9-2.1l-1.8-1.2
				c-2.6-1.4-5.6-2.1-8.5-2.1c-4-0.1-7.9,1.3-11,3.7c-1.6,1.2-3.1,2.5-4.9,3.4c-1.9,0.9-3.9,1.2-5.9,1.1c-1.8-0.1-3.6-0.5-5.3-1.1
				c-0.5-0.2-0.9-0.4-1.4-0.6c-1.5-0.7-3-1.1-4.6-1.2l0.8,0.5c1.1,0.8,2.1,1.7,3.1,2.7l1.4,1.4c2.9,2.5,6.7,3.9,10.5,3.9
				c2.3,0,4.6-0.5,6.7-1.5l1.9-1.1c1.1-0.7,2.2-1.2,3.4-1.6c1.3-0.3,2.6-0.5,4-0.4c2.1,0.2,4,1,5.6,2.4c3.5,2.9,7.9,4.5,12.5,4.5
				c2.7,0,5.4-0.5,7.9-1.7c1.1-0.6,2.2-1.3,3.2-2.1c1.9-1.7,4.3-2.8,6.9-3.1h0.7c2.2,0,4.3,0.5,6.2,1.5c2.9,1.8,6.3,2.9,9.7,3.1h1.7
				c3.2-0.3,6.2-1.7,8.7-3.8l1.5-1.5c1-1.2,2.1-2.3,3.4-3.2h0.3C98,34.2,96,34.7,94.2,35.5z"></path>
        </g>
      </g>
    </g>
  </symbol>
  <symbol id="96" xmlns="http://www.w3.org/2000/svg" viewBox="0 0 97.94 98.62">
    <defs></defs>
    <g id="_43">
      <path d="M54.67,80A15.2,15.2,0,1,0,69.88,64.85,15.22,15.22,0,0,0,54.67,80Z"></path>
      <path d="M23.16,66.45l9,9,6.33-6.33c8.82-2.55,18.45-5,29.38-7.31A35.11,35.11,0,0,0,76,59.36a1.87,1.87,0,0,0,.25-.12,37.51,37.51,0,0,0,11-7.56s0,0,0,0a.1.1,0,0,1,0,0,37.8,37.8,0,0,0,7.66-11.07.07.07,0,0,1,0-.06,34,34,0,0,0,2.9-11.28c.06-.78.08-1.56.08-2.34A26.66,26.66,0,0,0,90.28,7.67,27,27,0,0,0,68.79.09,35.79,35.79,0,0,0,46.31,10.71,36,36,0,0,0,36,31.05l-.54,2.85c-1.7,9.44-3.18,17.57-5.87,26.14ZM41.3,26.3l4.85,4.87L39.84,37.5A26,26,0,0,1,40,31.73l.21-1.19a.6.6,0,0,0,0-.19A28.84,28.84,0,0,1,41.3,26.3Zm34.35-1.09,6,6-6,6-6-6Zm-8.88,3.07-5.95-6,5.95-6,6,6Zm6,11.75-6,6-5.95-6,5.95-6Zm-14.81-2.9-6-6,6-6,6,6ZM55,40,44.81,50.24a21.62,21.62,0,0,1-4.09-7.83l8.34-8.34Zm-7.19-24.9L55,22.32l-6,6L43,22.21A34,34,0,0,1,47.83,15.13Zm10-7.73,6.06,6-6,6-7.17-7.17A32.12,32.12,0,0,1,57.82,7.4Zm15.3-3.2-6.35,6.34L61.92,5.67a29.47,29.47,0,0,1,7.15-1.49c.7,0,1.38-.07,2-.07S72.46,4.15,73.12,4.2Zm12.74,5L75.65,19.4l-6-6,8.36-8.36A21.71,21.71,0,0,1,85.86,9.19Zm7,10.74L84.5,28.28l-6-6L88.76,12.11A22.1,22.1,0,0,1,92.85,19.93ZM92.27,36,87.4,31.17l6.33-6.33a27,27,0,0,1,0,4A29.64,29.64,0,0,1,92.27,36ZM85.74,47.22,78.55,40l6-6,6.07,6.06A33.55,33.55,0,0,1,85.74,47.22Zm-10,7.72-6-6,6-6,7.17,7.18A32.44,32.44,0,0,1,75.73,54.94ZM60.47,58.13l6.3-6.33,4.87,4.87a33.45,33.45,0,0,1-4.07,1.07.81.81,0,0,0-.22,0c-.21,0-.41.08-.62.14A28.09,28.09,0,0,1,60.47,58.13Zm-4.93-.91a21.67,21.67,0,0,1-7.81-4.08l10.19-10.2,6,6ZM33.69,60.55a152.44,152.44,0,0,0,3.72-15.06A25.2,25.2,0,0,0,53.54,60.9C48.12,62.24,43,63.57,38.13,65Z"></path>
      <path d="M2.3,85.17l15.49-15.5a2.12,2.12,0,0,1,2.47-.32l9,9A2,2,0,0,1,29,80.83L13.46,96.32A7.89,7.89,0,0,1,2.3,85.17Z"></path>
    </g>
  </symbol>
    <symbol version="1.1" id="60" xmlns="http://www.w3.org/2000/svg" xmlns:xlink="http://www.w3.org/1999/xlink" x="0px" y="0px" xml:space="preserve" viewBox="0 0 100 94.3">
    <g id="Layer_2_00000084526860669936684320000005257701165607479974_">
      <g id="Layer_1-2">
        <g id="Layer_2-2">
          <g id="Layer_1-2-2">
            <g id="Layer_2-2-2">
              <g id="Layer_1-2-2-2">
                <g id="Layer_2-2-2-2">
                  <g id="Layer_1-2-2-2-2">
                    <path d="M9.6,86.8c-3-1.6-6.3-2.4-9.6-2.3v5.9c2.5-0.1,4.9,0.5,7.1,1.8c3,1.5,6.3,2.2,9.6,2.2
									c3.3,0.1,6.6-0.7,9.6-2.2c2.2-1.2,4.6-1.8,7.1-1.8c2.5-0.1,5,0.5,7.2,1.8c2.9,1.5,6.2,2.2,9.4,2.2c3.3,0.1,6.6-0.7,9.6-2.2
									c4.5-2.3,9.8-2.3,14.3,0c5.9,2.8,12.8,2.8,18.8,0c2.2-1.3,4.8-1.9,7.4-1.8v-5.9c-3.4-0.1-6.7,0.7-9.6,2.3
									c-4.5,2.2-9.8,2.2-14.3,0c-6-3.1-13.1-3.1-19.1,0c-2.2,1.1-4.6,1.7-7,1.6c-2.5,0.1-4.9-0.5-7.1-1.6c-3-1.6-6.3-2.4-9.6-2.3
									c-3.4-0.1-6.7,0.7-9.6,2.3c-2.2,1.1-4.6,1.7-7.1,1.6C14.2,88.5,11.8,87.9,9.6,86.8z"></path>
                    <path d="M18.3,65.5c4.7,5.6,10.8,9.9,17.6,12.5l-4.2-12.5H18.3z"></path>
                    <path d="M64.3,78.4c6.8-2.6,12.8-6.9,17.5-12.5H68.8L64.3,78.4z"></path>
                    <path d="M61.3,1.5c-7.3-2-15-2-22.3,0l11.6,8.3L61.3,1.5z"></path>
                    <path d="M32.3,33.6l16.5-11.9v-9.8L35.9,2.6C29.7,5.1,24,8.9,19.4,13.9l4.1,16L32.3,33.6z"></path>
                    <path d="M17.3,16.5c-4.4,6-7.1,13.2-7.7,20.6l11.3-6.7L17.3,16.5z"></path>
                    <path d="M33.8,35.6l6.3,18.8h20.1l6.3-18.8L50,23.7L33.8,35.6z"></path>
                    <path d="M90.6,37.1c-0.4-7.5-3.1-14.7-7.7-20.6l-3.7,13.9L90.6,37.1z"></path>
                    <path d="M51.4,21.7l16.5,11.9l8.8-3.7l4.1-16C76.3,8.9,70.6,5,64.3,2.6l-12.5,9.3L51.4,21.7z"></path>
                    <path d="M37.9,55.1l-6.7-19.6l-8.8-3.6L10,40.3v0.5c-0.1,7.9,2.1,15.7,6.3,22.4h15.4L37.9,55.1z"></path>
                    <path d="M90.6,40.3l-12.5-7.8l-8.8,3.6l-6.3,19.7l5.7,7.7h15.5c4.2-7,6.5-15,6.7-23.2L90.6,40.3z"></path>
                    <path d="M60.1,56.9H39.5l-5.7,7.7l4.7,15c7.3,2.1,14.9,2.1,22.2,0l4.6-15L60.1,56.9z"></path>
                  </g>
                </g>
              </g>
            </g>
          </g>
        </g>
      </g>
    </g>
  </symbol>
  <symbol version="1.1" id="116" xmlns="http://www.w3.org/2000/svg" xmlns:xlink="http://www.w3.org/1999/xlink" x="0px" y="0px" xml:space="preserve" viewBox="0 0 98.7 89.3">
    <g>
      <path d="M46.2,41.2c3.7,3.7,7.5,5.6,12.5,6.2c1.9,0,3.1,1.2,3.1,3.1l0.6,6.2c-8.7-0.6-15.6-3.7-21.9-9.4L37.5,45
		l-6.9,7.5c-1.2,1.2-1.2,3.7,0,5l5.6,5c0.6,0.6,1.2,1.9,1.2,2.5v23.7h-8.7V68.1c0-1.2-0.6-1.9-1.2-2.5l-4.4-3.7v8.1
		c0,0.6-0.6,1.9-1.2,2.5L5.6,89.3L0,83.1l13.7-13.7c0.6-0.6,1.2-2.5,0.6-3.7L10,53.1c-0.6-1.9,0.6-4.4,2.5-5.6l13.7-13.7
		c1.9-1.9,3.7-3.1,5.6-3.1c1.9,0,3.1,0.6,4.4,1.2L46.2,41.2"></path>
      <path d="M98.7,48.1h-8.1V36.8c0-1.2-0.6-2.5-1.9-3.1l-5.6-2.5l3.7,18.1l4.4,21.9l3.7,18.1h-6.2c-1.2,0-3.1-1.2-3.1-2.5
		l-7.5-30.6l-7.5,6.9c-0.6,0.6-1.2,1.2-1.2,2.5v23.7h-8.1V59.9c0-0.6,0.6-1.9,1.2-2.5l6.2-5.6c0.6-0.6,1.2-1.9,1.2-3.1
		c0,0-2.5-11.2-2.5-11.2c0,0.1-0.7,0.7-0.8,0.8c-0.3,0.3-0.6,0.6-0.9,0.8c-0.6,0.5-1.1,1.1-1.7,1.6c-0.9,0.7-1.7,1.5-2.7,2
		c-0.9,0.5-1.9,1.1-3,1.2c-0.9,0.1-1.7-0.2-2.6-0.4c-0.8-0.2-1.7-0.4-2.4-0.7c-1.3-0.6-2.6-1.4-3.7-2.4c-0.2-0.2-0.4-0.3-0.5-0.5
		c-0.4-0.4-0.7-0.7-1-1.1c6.9-1.2,11.2-4.4,14.4-9.4l4.4-6.9c2.5-4.4,6.2-5.6,10.6-3.1l19.4,8.7c1.2,0.6,1.9,1.9,1.9,3.1V48.1"></path>
      <path d="M46.8,16.9c4.4,0,8.1,3.7,8.1,8.1s-3.7,8.7-8.1,8.7s-8.1-3.7-8.1-8.1S42.5,16.9,46.8,16.9"></path>
      <circle cx="67.4" cy="8.1" r="8.1"></circle>
    </g>
  </symbol>
    <symbol version="1.1" id="129" xmlns="http://www.w3.org/2000/svg" xmlns:xlink="http://www.w3.org/1999/xlink" x="0px" y="0px" xml:space="preserve" viewBox="0 0 82.8 100">
    <path d="M82.5,9.4c0.3-0.5,0.4-1.1,0.2-1.7c-0.8-2.4-3.6-4.5-4.7-5.3c-1.1-0.8-4.1-2.6-6.7-2.4c-0.6,0-1.1,0.3-1.5,0.8
	C63.9,8.7,59.1,17.5,54.4,26c-2.1,3.8-8.2,14.8-13,23.9c-4.8-9.1-10.9-20.1-13-23.9C23.8,17.5,18.9,8.7,13,0.8
	C12.6,0.3,12.1,0,11.5,0C8.9-0.1,6,1.6,4.8,2.4C3.7,3.2,0.9,5.3,0.1,7.7C-0.1,8.3,0,8.9,0.3,9.4c5.1,8.5,11.4,16.2,17.6,23.7
	c3.1,3.8,12.6,15.6,19.6,23.7L13.9,91.8c-1.1,0.1-2.1,0.6-2.8,1.6c-1.1,1.6-0.7,3.8,1,4.9l1.6,1.1c1.6,1.1,3.8,0.7,5-1
	c0.7-1,0.8-2.1,0.4-3.2l22.4-33.1l22.4,33.1c-0.4,1-0.2,2.2,0.4,3.2c1.1,1.6,3.3,2.1,5,1l1.6-1.1c1.6-1.1,2.1-3.3,1-4.9
	c-0.7-1-1.7-1.5-2.8-1.6L45.3,56.8c7-8.1,16.5-19.9,19.6-23.7C71.1,25.6,77.4,17.8,82.5,9.4z"></path>
  </symbol>
  <symbol id="130" xmlns="http://www.w3.org/2000/svg" viewBox="0 0 100 100">
    <defs></defs>
    <path d="M50,76.56A11.72,11.72,0,1,0,61.72,88.28,11.74,11.74,0,0,0,50,76.56Z"></path>
    <path d="M38.36,31.66l-4-4.26L23,38.79a48.19,48.19,0,0,1,4.7,3.58Z"></path>
    <polygon points="73.84 69.36 42.38 35.93 32.05 46.27 65.99 77.21 73.84 69.36"></polygon>
    <path d="M94.17,99.14l5-5A2.93,2.93,0,0,0,95,90l-.88.87L77.86,73.63l-7.53,7.54L90.12,99.23A2.93,2.93,0,0,0,94.17,99.14Z"></path>
    <path d="M3.74,28.6a8.8,8.8,0,0,0,3,2,107.53,107.53,0,0,1,11,5.06l13-12.94a12.84,12.84,0,0,1-.33-10.48A7.18,7.18,0,0,0,28.6,3.74C22.89-2,12.67-1,5.81,5.81S-2,22.89,3.74,28.6Z"></path>
    <polygon points="54.02 39.76 63.75 50.1 67.95 46.27 57.62 35.93 54.02 39.76"></polygon>
    <path d="M77.05,38.79,65.66,27.4l-4,4.26L72.35,42.37A47,47,0,0,1,77.05,38.79Z"></path>
    <path d="M93.26,30.64a8.8,8.8,0,0,0,3-2C102,22.89,101,12.67,94.19,5.81S77.11-2,71.4,3.74a7.18,7.18,0,0,0-1.77,8.54,12.84,12.84,0,0,1-.33,10.48l13,12.94A107.53,107.53,0,0,1,93.26,30.64Z"></path>
    <polygon points="45.65 66.6 36.56 58.31 26.16 69.36 34.01 77.21 45.65 66.6"></polygon>
    <path d="M5.83,99.14a2.93,2.93,0,0,0,4.05.09L29.67,81.17l-7.53-7.54L5.88,90.9,5,90A2.93,2.93,0,1,0,.86,94.17Z"></path>
  </symbol>
  <symbol version="1.1" id="59" xmlns="http://www.w3.org/2000/svg" xmlns:xlink="http://www.w3.org/1999/xlink" x="0px" y="0px" xml:space="preserve" viewBox="0 0 99.3 92">
    <g>
      <g>
        <path d="M82.8,86.8c-3.3,0-5.3-0.7-7.2-2c-2-1.3-4.6-2-9.2-2s-7.2,1.3-9.2,2c-2.6,0.7-4.6,2-7.9,2s-5.3-0.7-7.2-2
			c-2-1.3-4.6-2-9.2-2s-7.2,1.3-9.2,2c-2,0.7-3.9,2-7.2,2s-5.3-0.7-7.2-2s-3.9-2-9.2-2v5.9c3.3,0,5.3,0.7,7.2,2
			c2,0.7,3.9,1.3,9.2,1.3s7.2-1.3,9.2-2c2.6-1.3,3.9-2,7.9-2s5.3,0.7,7.2,2s4.6,2,9.2,2s7.2-1.3,9.2-2s3.9-2,7.2-2
			c3.3,0,5.3,0.7,7.2,2s4.6,2,9.2,2c4.6,0,7.2-1.3,9.2-2c2-0.7,3.9-2,7.2-2v-5.9c-4.6,0-7.2,1.3-9.2,2
			C88.1,84.8,86.1,86.8,82.8,86.8z"></path>
      </g>
      <g>
        <g>
          <g>
            <path d="M50.6,41.4C49.3,59.8,39.4,71,32.2,76.3c3.3,1.3,6.6,2.6,10.5,3.3l1.3-1.3c8.5-8.5,20.4-20.4,23-41.4
					C61.8,37.5,55.9,38.8,50.6,41.4z"></path>
          </g>
        </g>
        <g>
          <g>
            <path d="M86.8,28.9l-2-1.3c-7.2-4.6-26.3-13.1-49.3-3.9c2.6,4.6,7.2,9.2,13.1,13.1c16.4-7.9,31.6-4.6,39.4-1.3
					C87.4,32.9,87.4,30.9,86.8,28.9z"></path>
          </g>
        </g>
        <g>
          <g>
            <path d="M48,0c-6.6,0-13.1,2-19.1,5.3l0,0c0.7,3.9,1.3,9.2,3.9,14.5c22.4-9.2,40.8-3.3,50.6,2C76.9,8.5,63.8,0,48,0
					z"></path>
          </g>
        </g>
        <g>
          <g>
            <path d="M24.3,7.9c-3.3,2.6-5.9,5.3-8.5,8.5v1.3c2,11.8,7.9,28.3,24.3,41.4c2.6-4.6,4.6-11.2,5.3-18.4
					C30.9,30.9,25.6,18.4,24.3,7.9z"></path>
          </g>
        </g>
        <g>
          <g>
            <path d="M11.8,23c-2,5.3-3.3,11.2-3.3,17.1c0,14.5,7.2,27,19.1,34.2l0.7-0.7c3.3-3.3,6.6-5.3,9.9-9.9
					C21,51.3,14.5,35.5,11.8,23z"></path>
          </g>
        </g>
        <g>
          <g>
            <path d="M87.4,40.8c-3.9-2-9.9-3.3-15.8-3.9c-2.6,21-12.5,34.8-22.4,43.4C70.3,79.6,87.4,62.5,87.4,40.8L87.4,40.8z
					"></path>
          </g>
        </g>
      </g>
    </g>
  </symbol>
    <symbol version="1.1" id="67" xmlns="http://www.w3.org/2000/svg" xmlns:xlink="http://www.w3.org/1999/xlink" x="0px" y="0px" xml:space="preserve" viewBox="0 0 100 98.2">
    <g id="Layer_2_00000026122632069406017900000003863794295311698323_">
      <g id="Layer_1-2">
        <polygon points="46.5,52.5 20.3,0 14.8,2.8 43,59.4 		"></polygon>
        <path d="M92.6,79.6H60.1l-3.3-6.3l-3.4,6.9l6.3,12.5c1.8,3.2,5.1,5.2,8.8,5.4h24.2c4,0.1,7.3-3,7.4-6.9
			c0-0.1,0-0.2,0-0.3v-4.1C100,82.8,96.7,79.6,92.6,79.6C92.7,79.6,92.7,79.6,92.6,79.6z"></path>
        <path d="M79.6,0L39.8,79.6H7.2c-4,0-7.2,3.2-7.2,7.2v4.1c0,4,3.2,7.2,7.2,7.2h24.1c3.7-0.1,7-2.2,8.8-5.4l45.1-90
			L79.6,0z"></path>
      </g>
    </g>
  </symbol>
  <symbol version="1.1" id="72" xmlns="http://www.w3.org/2000/svg" xmlns:xlink="http://www.w3.org/1999/xlink" x="0px" y="0px" xml:space="preserve" viewBox="0 0 99.8 99.6">
    <g id="Layer_2_00000170279816138588832330000015749621159963095985_">
      <g id="Layer_1-2">
        <path d="M81.2,43.8H18.6C8.3,43.8,0,52.1,0,62.4v6.4h99.8v-6.4C99.8,52.1,91.5,43.8,81.2,43.8z"></path>
        <path d="M0,74.6V81c0,10.3,8.3,18.6,18.6,18.6h62.6c10.3,0,18.6-8.3,18.6-18.6v-6.4H0z"></path>
        <path d="M71.5,2.1C71.1,0.8,70,0,68.7,0H28c-6.8,0-12.3,5.5-12.3,12.3S21.2,24.6,28,24.6h22.1v13.6h31.8L71.5,2.1z"></path>
      </g>
    </g>
  </symbol>
  <symbol xmlns="http://www.w3.org/2000/svg" viewBox="0 0 32 32" id="others">
    <path d="M31.108 10.775c-3.03 3.903-8.342 6.1-15.108 6.1-6.72 0-12.053-2.213-15.1-6.12-.504 1.453-.842 2.997-.9 4.607 2.93 2.61 7.986 5.263 16 5.263 7.932 0 12.969-2.57 16-5.29-.06-1.593-.395-3.12-.892-4.56Z"></path>
    <path d="M27.829 5.231C26.967 7.7 24.238 11.25 16 11.25c-5.937 0-8.96-1.935-10.397-3.557a7.329 7.329 0 0 1-1.427-2.467A15.966 15.966 0 0 0 1.742 8.76C4.286 12.744 9.4 15 16 15c6.65 0 11.725-2.256 14.254-6.246A15.97 15.97 0 0 0 27.83 5.23ZM16 22.5C8.498 22.5 3.366 20.29.08 17.835c.228 1.9.835 3.696 1.672 5.332C5.855 25.204 10.678 26.25 16 26.25c5.352 0 10.163-1.048 14.248-3.084.835-1.633 1.444-3.423 1.671-5.318C28.56 20.366 23.424 22.5 16 22.5Z"></path>
    <path d="M22.553 1.396c.029.158.072.312.072.479 0 2.243-2.7 3.75-6.625 3.75s-6.625-1.507-6.625-3.75c0-.167.043-.321.072-.48a16.01 16.01 0 0 0-3.716 2.336c.168 1 .583 1.937 1.276 2.719C8.702 8.363 11.853 9.375 16 9.375c5.877 0 9.684-2.111 10.263-5.649a16.004 16.004 0 0 0-3.71-2.33ZM16 28.125c-4.489 0-8.678-.703-12.383-2.092C6.542 29.596 11.04 32 16 32c4.96 0 9.458-2.403 12.383-5.967-3.691 1.386-7.872 2.092-12.383 2.092Z"></path>
    <path d="M16 0c-2.589 0-4.75.84-4.75 1.875 0 1.035 2.161 1.875 4.75 1.875s4.75-.84 4.75-1.875C20.75.839 18.589 0 16 0Z"></path>
  </symbol>
  <symbol viewBox="0 0 32 32" id="live">
    <path d="M16 0C7.163 0 0 7.163 0 16s7.163 16 16 16 16-7.163 16-16S24.837 0 16 0Zm-4.372 22.96V9.04L23.682 16l-12.054 6.96Z"></path>
  </symbol>
  <symbol id="107" xmlns="http://www.w3.org/2000/svg" viewBox="0 0 16 16">
    <title>Untitled-1</title>
    <path d="M14.38,13.57a5.69,5.69,0,0,0-.66-1.82,2.58,2.58,0,0,0-.58-.7A1.07,1.07,0,0,0,11.8,11a1.33,1.33,0,0,1-.42.19l0,0c0-.09.07-.17.11-.26a.81.81,0,0,0-.07-.68A2.79,2.79,0,0,0,11,9.8a2.88,2.88,0,0,1-.3-.39.26.26,0,0,1-.05-.17.42.42,0,0,1-.42,0,.73.73,0,0,0,.09.35,2.28,2.28,0,0,0,.38.5,3.57,3.57,0,0,1,.3.38.4.4,0,0,1,0,.41,2,2,0,0,1-.21.28.06.06,0,0,1-.05,0,1.13,1.13,0,0,1-.72-.16,1.78,1.78,0,0,0-.3-.17,1.06,1.06,0,0,0-1.14.16,2.53,2.53,0,0,0-.65.81,6,6,0,0,0-.64,2c0,.1,0,.21,0,.31v.44c0,.1,0,.21.06.32a.88.88,0,0,0,.17.35.76.76,0,0,0,.32.2H8a2,2,0,0,0,1-.62,2.75,2.75,0,0,1,.52-.44,1.52,1.52,0,0,1,.76-.21h1.19a1.49,1.49,0,0,1,1.07.45l.32.31a1.83,1.83,0,0,0,.87.51h.2a.75.75,0,0,0,.51-.71A3.07,3.07,0,0,0,14.38,13.57Zm-4.8-.66H9.39v.19a.23.23,0,0,1-.22.23A.22.22,0,0,1,9,13.1v-.19H8.77a.22.22,0,0,1-.23-.22.22.22,0,0,1,.23-.21H9v-.19a.22.22,0,0,1,.21-.23.23.23,0,0,1,.22.23v.19h.19a.22.22,0,1,1,0,.43Zm1.68,0h-.79a.22.22,0,0,1-.24-.22.21.21,0,0,1,.23-.21h.8a.21.21,0,0,1,.23.21C11.5,12.81,11.4,12.9,11.26,12.91Zm1.3-.85a.21.21,0,0,1,.2.21.24.24,0,0,1-.22.21.21.21,0,0,1,0-.42Zm-.43.85a.22.22,0,1,1,.21-.22A.23.23,0,0,1,12.13,12.91Zm.41.42a.21.21,0,1,1,.22-.21A.21.21,0,0,1,12.54,13.33Zm.43-.42a.23.23,0,0,1-.21-.22.21.21,0,1,1,.21.22Z"></path>
    <path d="M6.7.55h.72l.1,0A4.9,4.9,0,0,1,8.73.81a5.5,5.5,0,0,1,3.86,4.86,5,5,0,0,1-.36,2.43,5.43,5.43,0,0,1-4.87,3.52A5.06,5.06,0,0,1,4.47,11,5.48,5.48,0,0,1,1.6,6.93c0-.16-.05-.31-.07-.47V5.72a.19.19,0,0,0,0-.08A5.07,5.07,0,0,1,1.9,4.1,5.51,5.51,0,0,1,6.26.61Zm.57,2.53h0v.84a.19.19,0,0,0,.07.14L9,5.42a.12.12,0,0,0,.14,0l1.72-.57A.14.14,0,0,0,11,4.75c.11-.49.23-1,.34-1.46a.21.21,0,0,0,0-.15,5.28,5.28,0,0,0-2-1.72.22.22,0,0,0-.16,0l-1.77.7c-.07,0-.08.06-.08.13Zm-.39,0c0-.29,0-.57,0-.86a.1.1,0,0,0-.08-.11L5,1.41a.16.16,0,0,0-.12,0A5,5,0,0,0,2.82,3.16a.23.23,0,0,0,0,.12c.12.49.24,1,.35,1.48a.13.13,0,0,0,.1.11L5,5.44a.14.14,0,0,0,.14,0L6.81,4.06a.2.2,0,0,0,.06-.13C6.88,3.65,6.88,3.37,6.88,3.09ZM4.56,9.21l.06-.05.81-1.09a.17.17,0,0,0,0-.1c-.17-.69-.34-1.37-.52-2,0,0-.05-.08-.08-.09L3.13,5.25a.11.11,0,0,0-.13,0L2,6.51a.23.23,0,0,0,0,.14,5,5,0,0,0,.77,2.21.26.26,0,0,0,.11.07l.93.15Zm7.67-2.55a1.26,1.26,0,0,0-.07-.16l-1-1.21s-.07-.07-.14,0L9.3,5.82a.19.19,0,0,0-.1.1L8.69,8a.15.15,0,0,0,0,.11l.83,1.09s.06.05.09,0l1.71-.27a.2.2,0,0,0,.09-.07A5.36,5.36,0,0,0,12.23,6.66ZM4.91,9.44c.35.56.71,1.11,1.06,1.66a.18.18,0,0,0,.09.06,5,5,0,0,0,2.17,0A.23.23,0,0,0,8.34,11l.87-1.51a.14.14,0,0,0,0-.16c-.27-.34-.53-.69-.79-1a.2.2,0,0,0-.13-.06H5.86a.13.13,0,0,0-.11.06Q5.33,8.87,4.91,9.44Z"></path>
  </symbol>
  <symbol id="108" xmlns="http://www.w3.org/2000/svg" viewBox="0 0 16 16">
    <title>Untitled-1</title>
    <path d="M8,15.35h-.2a.7.7,0,0,1-.33-.2,1,1,0,0,1-.16-.36c0-.1,0-.21-.06-.31V14c0-.1,0-.21,0-.31a6,6,0,0,1,.64-2,2.59,2.59,0,0,1,.65-.82,1.1,1.1,0,0,1,1.15-.16,2.19,2.19,0,0,1,.29.17,1.16,1.16,0,0,0,.73.16l.05,0c.07-.1.15-.19.21-.29a.38.38,0,0,0,0-.41,3.57,3.57,0,0,0-.3-.38,2.57,2.57,0,0,1-.38-.49,1,1,0,0,1-.1-.55,1.45,1.45,0,0,1,.5-.78.17.17,0,0,1,.19,0,.21.21,0,0,1,.08.36,3.07,3.07,0,0,0-.28.35.38.38,0,0,0,0,.44,2.88,2.88,0,0,0,.3.39,2.4,2.4,0,0,1,.37.47.83.83,0,0,1,.06.69c0,.08-.07.16-.11.25h0a1.09,1.09,0,0,0,.42-.2,1.1,1.1,0,0,1,1.35.06,2.31,2.31,0,0,1,.58.7,5.55,5.55,0,0,1,.66,1.81,3.67,3.67,0,0,1,.06,1.19.76.76,0,0,1-.52.7h-.2a1.82,1.82,0,0,1-.87-.5l-.32-.31a1.52,1.52,0,0,0-1.08-.46H10.31a1.59,1.59,0,0,0-.77.21,2.42,2.42,0,0,0-.51.45A2.09,2.09,0,0,1,8,15.35ZM9,12.8V13c0,.14.1.24.22.23A.21.21,0,0,0,9.42,13v-.2h.19a.21.21,0,1,0,0-.42H9.42v-.19A.21.21,0,0,0,9.2,12c-.12,0-.2.09-.21.23v.19H8.81a.22.22,0,0,0-.24.21.22.22,0,0,0,.23.21Zm1.91,0h.4a.21.21,0,1,0,0-.42h-.81a.22.22,0,0,0-.23.21.22.22,0,0,0,.24.21Zm1.9-.63a.22.22,0,0,0-.21-.21.2.2,0,0,0-.21.2.21.21,0,0,0,.21.22A.22.22,0,0,0,12.8,12.17Zm-.64.21a.22.22,0,0,0-.21.21.23.23,0,0,0,.22.21.21.21,0,1,0,0-.42Zm.85,0a.21.21,0,0,0-.21.21.21.21,0,0,0,.42,0A.21.21,0,0,0,13,12.38Zm-.42.84A.21.21,0,0,0,12.8,13a.21.21,0,1,0-.21.21Z"></path>
    <path d="M6.67,11.74l-.59-.09a5.43,5.43,0,0,1-2.33-1A5.58,5.58,0,0,1,1.91,8.31a.64.64,0,0,1,0-.07A13.22,13.22,0,0,1,7.05,5.56a6.75,6.75,0,0,1-.31,6.18Zm-1-.8a.19.19,0,0,0,.22-.14.19.19,0,0,0-.13-.23A6.65,6.65,0,0,1,4.58,10a.21.21,0,0,0-.17,0,.24.24,0,0,0-.13.15.18.18,0,0,0,.1.21,5.8,5.8,0,0,0,1.17.58ZM3.69,9.38c0-.07,0-.12-.08-.16L3,8.46c0-.06-.12-.11-.2-.07a.29.29,0,0,0-.15.14.25.25,0,0,0,0,.17c.15.22.32.44.48.65a.46.46,0,0,0,.15.16.27.27,0,0,0,.2,0S3.65,9.43,3.69,9.38Z"></path>
    <path d="M7.21,11.74l0-.09A6.21,6.21,0,0,0,8,9.36a7,7,0,0,0-.26-3.22c-.07-.23-.16-.45-.25-.69l1-.21.6-.1c.07,0,.11,0,.14.08a11.67,11.67,0,0,1,.57,2.62,8.63,8.63,0,0,1,0,1.76c0,.49-.13,1-.2,1.46a.25.25,0,0,1-.08.1,5.68,5.68,0,0,1-1.8.54l-.35,0Z"></path>
    <path d="M12.59,6.54c0,.25-.07.5-.12.75s-.08.35-.12.54a2,2,0,0,1-.47-.55,5.59,5.59,0,0,1-.77-2.12l0-.24,1.36,0,.12.82,0,.12Z"></path>
    <path d="M6.89,5.2A13.79,13.79,0,0,0,1.74,7.84a5.52,5.52,0,0,1,1-5.14.17.17,0,0,1,.13-.07,4.07,4.07,0,0,1,2,.49A5,5,0,0,1,6.56,4.68Z"></path>
    <path d="M9,4.74l-.65.12-1,.21c-.08,0-.12,0-.16-.06a5.61,5.61,0,0,0-1.6-1.86,4.58,4.58,0,0,0-2.38-.9H3.19l0,0L3.44,2a5.61,5.61,0,0,1,2-1.09.23.23,0,0,1,.14,0,5.73,5.73,0,0,1,1.72,1.2A7.94,7.94,0,0,1,9,4.74Z"></path>
    <path d="M6.1.73,6.54.67a5.54,5.54,0,0,1,2.92.53,6,6,0,0,1,1.27.85.14.14,0,0,1,0,.15,9.2,9.2,0,0,0-.15,2l0,.4-.45,0-.66.07c-.1,0-.15,0-.19-.11A8.87,8.87,0,0,0,8.29,2.68,6.58,6.58,0,0,0,6.19.78Z"></path>
    <path d="M10,10.87a11.53,11.53,0,0,0-.47-5.8l.1,0,1-.1c0,.17.05.34.08.5a5.5,5.5,0,0,0,.88,2.17c.16.22.36.41.55.63A5.57,5.57,0,0,1,10,10.87Z"></path>
    <path d="M11.12,2.44a5.74,5.74,0,0,1,1.2,2.05L11,4.53A8.15,8.15,0,0,1,11.12,2.44Z"></path>
  </symbol>
  <symbol id="110" xmlns="http://www.w3.org/2000/svg" viewBox="0 0 16 16">
    <title>Untitled-1</title>
    <path d="M1,5.68c0-.28,0-.55.05-.82s0-.48,0-.72h0A3.37,3.37,0,0,0,2.58,5,11.36,11.36,0,0,0,5,5.52a17,17,0,0,0,2.67.11,13.37,13.37,0,0,0,3.67-.56l.61-.23A2.9,2.9,0,0,0,13,4.12c0,.21,0,.41,0,.6,0,.66,0,1.33.06,2a1.43,1.43,0,0,1-.74,1.33,5.33,5.33,0,0,1-1.64.66,11.49,11.49,0,0,1-2.4.35c-.73,0-1.46,0-2.18,0a11.51,11.51,0,0,1-3.53-.63,3.15,3.15,0,0,1-1.16-.67A1.14,1.14,0,0,1,1,7.05.14.14,0,0,0,1,7Z"></path>
    <path d="M7.25,5.43A16.85,16.85,0,0,1,3.5,5.06a5.17,5.17,0,0,1-1.73-.64A1.91,1.91,0,0,1,1.29,4a.59.59,0,0,1,0-.77,2,2,0,0,1,.77-.56,7.64,7.64,0,0,1,2.08-.61,17.38,17.38,0,0,1,4.14-.2,13.09,13.09,0,0,1,3,.5A3.85,3.85,0,0,1,12.57,3a.84.84,0,0,1,.35.51.65.65,0,0,1-.19.59,2.5,2.5,0,0,1-.94.59,8.9,8.9,0,0,1-2,.54A16.92,16.92,0,0,1,7.25,5.43Z"></path>
    <path d="M8,14.18H7.77A.75.75,0,0,1,7.42,14a1,1,0,0,1-.18-.38c0-.12,0-.23-.06-.35v-.47c0-.11,0-.22,0-.34a6.36,6.36,0,0,1,.69-2.12,2.77,2.77,0,0,1,.7-.89,1.16,1.16,0,0,1,1.25-.17,1.44,1.44,0,0,1,.31.19,1.21,1.21,0,0,0,.79.16.05.05,0,0,0,0,0,3.55,3.55,0,0,0,.23-.31.39.39,0,0,0,0-.44,2.59,2.59,0,0,0-.32-.42,2.09,2.09,0,0,1-.41-.53.94.94,0,0,1-.11-.59,1.52,1.52,0,0,1,.54-.84.18.18,0,0,1,.21,0,.23.23,0,0,1,.08.39,4.08,4.08,0,0,0-.31.39.41.41,0,0,0,0,.47,2.59,2.59,0,0,0,.32.42,2.2,2.2,0,0,1,.4.51.87.87,0,0,1,.07.74c0,.09-.08.17-.12.27h0a1.17,1.17,0,0,0,.45-.21,1.17,1.17,0,0,1,1.46.06,2.56,2.56,0,0,1,.63.76,6,6,0,0,1,.71,2,3.25,3.25,0,0,1,.06,1.28.8.8,0,0,1-.56.76h-.21a2,2,0,0,1-.94-.55c-.12-.1-.23-.22-.34-.33a1.63,1.63,0,0,0-1.17-.49H10.44a1.72,1.72,0,0,0-.83.22,3.23,3.23,0,0,0-.56.48A2.2,2.2,0,0,1,8,14.18Zm1-2.76v.21a.24.24,0,0,0,.23.25.24.24,0,0,0,.23-.25v-.21h.2a.23.23,0,0,0,.25-.23A.24.24,0,0,0,9.68,11h-.2v-.2a.23.23,0,0,0-.23-.25.23.23,0,0,0-.23.25V11h-.2a.25.25,0,0,0-.26.23.24.24,0,0,0,.25.23Zm2.06,0h.43a.23.23,0,1,0,0-.46h-.87a.24.24,0,0,0-.25.23.23.23,0,0,0,.25.23Zm2.05-.68a.23.23,0,1,0-.45,0,.23.23,0,0,0,.45,0Zm-.69.22a.25.25,0,0,0-.22.24.23.23,0,0,0,.23.22.24.24,0,0,0,.23-.23A.25.25,0,0,0,12.44,11Zm.92,0a.23.23,0,1,0,0,.46.23.23,0,0,0,.23-.22A.24.24,0,0,0,13.36,11Zm-.46.92a.23.23,0,1,0-.22-.23A.23.23,0,0,0,12.9,11.88Z"></path>
  </symbol>
    <svg id="73"  viewBox="0 0 120 30" version="1.1" >
        <defs>
            <path d="M101.086812,30 L101.711812,30 L101.711812,27.106875 L101.722437,27.106875 L102.761812,30 L103.302437,30 L104.341812,27.106875 L104.352437,27.106875 L104.352437,30 L104.977437,30 L104.977437,26.25125 L104.063687,26.25125 L103.055562,29.18625 L103.044937,29.18625 L102.011187,26.25125 L101.086812,26.25125 L101.086812,30 Z M97.6274375,26.818125 L98.8136875,26.818125 L98.8136875,30 L99.4699375,30 L99.4699375,26.818125 L100.661812,26.818125 L100.661812,26.25125 L97.6274375,26.25125 L97.6274375,26.818125 Z M89.9999375,30 L119.999937,0 L101.943687,0 L71.9443125,30 L89.9999375,30 Z M85.6986875,13.065 L49.3818125,13.065 C38.3136875,13.065 36.3768125,13.651875 31.6361875,18.3925 C27.2024375,22.82625 20.0005625,30 20.0005625,30 L35.7324375,30 L39.4855625,26.246875 C41.9530625,23.779375 43.2255625,23.52375 48.4068125,23.52375 L75.2405625,23.52375 L85.6986875,13.065 Z M31.1518125,16.253125 C27.8774375,19.3425 20.7530625,26.263125 16.9130625,30 L-6.25e-05,30 C-6.25e-05,30 13.5524375,16.486875 21.0849375,9.0725 C28.8455625,1.685 32.7143125,0 46.9486875,0 L98.7643125,0 L87.5449375,11.21875 L48.0011875,11.21875 C37.9993125,11.21875 35.7518125,11.911875 31.1518125,16.253125 Z" id="path-1"/>
        </defs>
        <g id="Logos-/-F1-logo-red" stroke="none" stroke-width="1"   fill-rule="evenodd">
            <g id="Page-1">
                <mask id="mask-2"   >
                    <use xlink:href="#path-1"/>
                </mask>
                <use  xlink:href="#path-1"/>
            </g>
        </g>
    </svg>
</svg>